%TF.GenerationSoftware,KiCad,Pcbnew,7.0.5*%
%TF.CreationDate,2024-03-29T22:29:18-04:00*%
%TF.ProjectId,UWB_PCB,5557425f-5043-4422-9e6b-696361645f70,rev?*%
%TF.SameCoordinates,Original*%
%TF.FileFunction,Legend,Top*%
%TF.FilePolarity,Positive*%
%FSLAX46Y46*%
G04 Gerber Fmt 4.6, Leading zero omitted, Abs format (unit mm)*
G04 Created by KiCad (PCBNEW 7.0.5) date 2024-03-29 22:29:18*
%MOMM*%
%LPD*%
G01*
G04 APERTURE LIST*
G04 Aperture macros list*
%AMRoundRect*
0 Rectangle with rounded corners*
0 $1 Rounding radius*
0 $2 $3 $4 $5 $6 $7 $8 $9 X,Y pos of 4 corners*
0 Add a 4 corners polygon primitive as box body*
4,1,4,$2,$3,$4,$5,$6,$7,$8,$9,$2,$3,0*
0 Add four circle primitives for the rounded corners*
1,1,$1+$1,$2,$3*
1,1,$1+$1,$4,$5*
1,1,$1+$1,$6,$7*
1,1,$1+$1,$8,$9*
0 Add four rect primitives between the rounded corners*
20,1,$1+$1,$2,$3,$4,$5,0*
20,1,$1+$1,$4,$5,$6,$7,0*
20,1,$1+$1,$6,$7,$8,$9,0*
20,1,$1+$1,$8,$9,$2,$3,0*%
G04 Aperture macros list end*
%ADD10C,0.150000*%
%ADD11C,0.100000*%
%ADD12C,0.120000*%
%ADD13RoundRect,0.250000X0.312500X0.625000X-0.312500X0.625000X-0.312500X-0.625000X0.312500X-0.625000X0*%
%ADD14R,1.700000X1.700000*%
%ADD15O,1.700000X1.700000*%
G04 APERTURE END LIST*
D10*
%TO.C,R1*%
X157133333Y-121924819D02*
X156800000Y-121448628D01*
X156561905Y-121924819D02*
X156561905Y-120924819D01*
X156561905Y-120924819D02*
X156942857Y-120924819D01*
X156942857Y-120924819D02*
X157038095Y-120972438D01*
X157038095Y-120972438D02*
X157085714Y-121020057D01*
X157085714Y-121020057D02*
X157133333Y-121115295D01*
X157133333Y-121115295D02*
X157133333Y-121258152D01*
X157133333Y-121258152D02*
X157085714Y-121353390D01*
X157085714Y-121353390D02*
X157038095Y-121401009D01*
X157038095Y-121401009D02*
X156942857Y-121448628D01*
X156942857Y-121448628D02*
X156561905Y-121448628D01*
X158085714Y-121924819D02*
X157514286Y-121924819D01*
X157800000Y-121924819D02*
X157800000Y-120924819D01*
X157800000Y-120924819D02*
X157704762Y-121067676D01*
X157704762Y-121067676D02*
X157609524Y-121162914D01*
X157609524Y-121162914D02*
X157514286Y-121210533D01*
%TO.C,R2*%
X157133333Y-126774819D02*
X156800000Y-126298628D01*
X156561905Y-126774819D02*
X156561905Y-125774819D01*
X156561905Y-125774819D02*
X156942857Y-125774819D01*
X156942857Y-125774819D02*
X157038095Y-125822438D01*
X157038095Y-125822438D02*
X157085714Y-125870057D01*
X157085714Y-125870057D02*
X157133333Y-125965295D01*
X157133333Y-125965295D02*
X157133333Y-126108152D01*
X157133333Y-126108152D02*
X157085714Y-126203390D01*
X157085714Y-126203390D02*
X157038095Y-126251009D01*
X157038095Y-126251009D02*
X156942857Y-126298628D01*
X156942857Y-126298628D02*
X156561905Y-126298628D01*
X157514286Y-125870057D02*
X157561905Y-125822438D01*
X157561905Y-125822438D02*
X157657143Y-125774819D01*
X157657143Y-125774819D02*
X157895238Y-125774819D01*
X157895238Y-125774819D02*
X157990476Y-125822438D01*
X157990476Y-125822438D02*
X158038095Y-125870057D01*
X158038095Y-125870057D02*
X158085714Y-125965295D01*
X158085714Y-125965295D02*
X158085714Y-126060533D01*
X158085714Y-126060533D02*
X158038095Y-126203390D01*
X158038095Y-126203390D02*
X157466667Y-126774819D01*
X157466667Y-126774819D02*
X158085714Y-126774819D01*
%TO.C,J2*%
X138766666Y-66914819D02*
X138766666Y-67629104D01*
X138766666Y-67629104D02*
X138719047Y-67771961D01*
X138719047Y-67771961D02*
X138623809Y-67867200D01*
X138623809Y-67867200D02*
X138480952Y-67914819D01*
X138480952Y-67914819D02*
X138385714Y-67914819D01*
X139195238Y-67010057D02*
X139242857Y-66962438D01*
X139242857Y-66962438D02*
X139338095Y-66914819D01*
X139338095Y-66914819D02*
X139576190Y-66914819D01*
X139576190Y-66914819D02*
X139671428Y-66962438D01*
X139671428Y-66962438D02*
X139719047Y-67010057D01*
X139719047Y-67010057D02*
X139766666Y-67105295D01*
X139766666Y-67105295D02*
X139766666Y-67200533D01*
X139766666Y-67200533D02*
X139719047Y-67343390D01*
X139719047Y-67343390D02*
X139147619Y-67914819D01*
X139147619Y-67914819D02*
X139766666Y-67914819D01*
%TO.C,J1*%
X174881666Y-90904819D02*
X174881666Y-91619104D01*
X174881666Y-91619104D02*
X174834047Y-91761961D01*
X174834047Y-91761961D02*
X174738809Y-91857200D01*
X174738809Y-91857200D02*
X174595952Y-91904819D01*
X174595952Y-91904819D02*
X174500714Y-91904819D01*
X175881666Y-91904819D02*
X175310238Y-91904819D01*
X175595952Y-91904819D02*
X175595952Y-90904819D01*
X175595952Y-90904819D02*
X175500714Y-91047676D01*
X175500714Y-91047676D02*
X175405476Y-91142914D01*
X175405476Y-91142914D02*
X175310238Y-91190533D01*
D11*
%TO.C,J3*%
X118681419Y-134483333D02*
X119395704Y-134483333D01*
X119395704Y-134483333D02*
X119538561Y-134530952D01*
X119538561Y-134530952D02*
X119633800Y-134626190D01*
X119633800Y-134626190D02*
X119681419Y-134769047D01*
X119681419Y-134769047D02*
X119681419Y-134864285D01*
X118681419Y-134102380D02*
X118681419Y-133483333D01*
X118681419Y-133483333D02*
X119062371Y-133816666D01*
X119062371Y-133816666D02*
X119062371Y-133673809D01*
X119062371Y-133673809D02*
X119109990Y-133578571D01*
X119109990Y-133578571D02*
X119157609Y-133530952D01*
X119157609Y-133530952D02*
X119252847Y-133483333D01*
X119252847Y-133483333D02*
X119490942Y-133483333D01*
X119490942Y-133483333D02*
X119586180Y-133530952D01*
X119586180Y-133530952D02*
X119633800Y-133578571D01*
X119633800Y-133578571D02*
X119681419Y-133673809D01*
X119681419Y-133673809D02*
X119681419Y-133959523D01*
X119681419Y-133959523D02*
X119633800Y-134054761D01*
X119633800Y-134054761D02*
X119586180Y-134102380D01*
D12*
%TO.C,R1*%
X158027064Y-120560000D02*
X156572936Y-120560000D01*
X158027064Y-118740000D02*
X156572936Y-118740000D01*
%TO.C,R2*%
X158027064Y-125410000D02*
X156572936Y-125410000D01*
X158027064Y-123590000D02*
X156572936Y-123590000D01*
D11*
%TO.C,J2*%
X119155000Y-55130000D02*
X119155000Y-114570000D01*
D12*
X128880001Y-111410000D02*
X128880001Y-112740000D01*
X130210001Y-111410000D02*
X128880001Y-111410000D01*
X131480000Y-111410000D02*
X131480000Y-114070000D01*
X131480000Y-111410000D02*
X149320000Y-111410000D01*
X131480000Y-114070000D02*
X149320000Y-114070000D01*
X149320000Y-111410000D02*
X149320000Y-114070000D01*
D11*
X119155000Y-55130000D02*
X159045000Y-55130000D01*
X159045000Y-55130000D02*
X159045000Y-114570000D01*
X159045000Y-114570000D02*
X119155000Y-114570000D01*
X119155000Y-114570000D02*
X119155000Y-55130000D01*
%TO.C,J1*%
X160250000Y-55000000D02*
X160250000Y-56500000D01*
X160250000Y-55000000D02*
X190180000Y-55000000D01*
X160250000Y-56500000D02*
X160250000Y-126400000D01*
X160250000Y-126400000D02*
X190180000Y-126400000D01*
X190180000Y-55000000D02*
X191180000Y-55000000D01*
X190180000Y-126400000D02*
X191180000Y-126400000D01*
X191180000Y-55000000D02*
X191180000Y-56500000D01*
X191180000Y-56500000D02*
X191180000Y-126400000D01*
%TO.C,J3*%
X154276000Y-151676000D02*
X154276000Y-116624000D01*
D12*
X131670000Y-121764000D02*
X144430000Y-121764000D01*
X131670000Y-121764000D02*
X131670000Y-119104000D01*
X144430000Y-121764000D02*
X144430000Y-119104000D01*
X129070000Y-120434000D02*
X129070000Y-119104000D01*
X129070000Y-119104000D02*
X130400000Y-119104000D01*
X131670000Y-119104000D02*
X144430000Y-119104000D01*
D11*
X119224000Y-116624000D02*
X154276000Y-116624000D01*
X154276000Y-116624000D02*
X119224000Y-116624000D01*
X119224000Y-151676000D02*
X154276000Y-151676000D01*
X154276000Y-151676000D02*
X154276000Y-116624000D01*
X154276000Y-116624000D02*
X119224000Y-116624000D01*
X119224000Y-116624000D02*
X119224000Y-151676000D01*
%TD*%
%LPC*%
D13*
%TO.C,R1*%
X158762500Y-119650000D03*
X155837500Y-119650000D03*
%TD*%
%TO.C,R2*%
X158762500Y-124500000D03*
X155837500Y-124500000D03*
%TD*%
D14*
%TO.C,J2*%
X130210001Y-112740000D03*
D15*
X132750001Y-112740000D03*
X135290001Y-112740000D03*
X137830000Y-112740000D03*
X140370001Y-112740000D03*
X142910001Y-112740000D03*
X145450001Y-112740000D03*
X147990001Y-112740000D03*
%TD*%
D14*
%TO.C,J1*%
X161600000Y-60500000D03*
D15*
X161600000Y-63040000D03*
X161600000Y-65580000D03*
X161600000Y-68120000D03*
X161600000Y-70660000D03*
X161600000Y-73200000D03*
X161600000Y-75740000D03*
X161600000Y-78280000D03*
X161600000Y-80820000D03*
X161600000Y-83360000D03*
X161600000Y-85900000D03*
X161600000Y-88440000D03*
X161600000Y-90980000D03*
X161600000Y-93520000D03*
X161600000Y-96060000D03*
X161600000Y-98600000D03*
X161600000Y-101140000D03*
X161600000Y-103680000D03*
X161600000Y-106220000D03*
X161600000Y-108760000D03*
D14*
X189830000Y-60500000D03*
D15*
X189830000Y-63040000D03*
X189830000Y-65580000D03*
X189830000Y-68120000D03*
X189830000Y-70660000D03*
X189830000Y-73200000D03*
X189830000Y-75740000D03*
X189830000Y-78280000D03*
X189830000Y-80820000D03*
X189830000Y-83360000D03*
X189830000Y-85900000D03*
X189830000Y-88440000D03*
%TD*%
D14*
%TO.C,J3*%
X130400000Y-120434000D03*
D15*
X132940000Y-120434000D03*
X135480000Y-120434000D03*
X138020000Y-120434000D03*
X140560000Y-120434000D03*
X143100000Y-120434000D03*
%TD*%
%LPD*%
M02*
