%TF.GenerationSoftware,KiCad,Pcbnew,7.0.5*%
%TF.CreationDate,2024-03-29T22:29:18-04:00*%
%TF.ProjectId,UWB_PCB,5557425f-5043-4422-9e6b-696361645f70,rev?*%
%TF.SameCoordinates,Original*%
%TF.FileFunction,Copper,L2,Bot*%
%TF.FilePolarity,Positive*%
%FSLAX46Y46*%
G04 Gerber Fmt 4.6, Leading zero omitted, Abs format (unit mm)*
G04 Created by KiCad (PCBNEW 7.0.5) date 2024-03-29 22:29:18*
%MOMM*%
%LPD*%
G01*
G04 APERTURE LIST*
%TA.AperFunction,ComponentPad*%
%ADD10R,1.700000X1.700000*%
%TD*%
%TA.AperFunction,ComponentPad*%
%ADD11O,1.700000X1.700000*%
%TD*%
%TA.AperFunction,ViaPad*%
%ADD12C,0.800000*%
%TD*%
%TA.AperFunction,Conductor*%
%ADD13C,0.250000*%
%TD*%
%TA.AperFunction,Conductor*%
%ADD14C,0.200000*%
%TD*%
G04 APERTURE END LIST*
D10*
%TO.P,J2,1,Pin_1*%
%TO.N,/IO5*%
X130210001Y-112740000D03*
D11*
%TO.P,J2,2,Pin_2*%
%TO.N,/IO18*%
X132750001Y-112740000D03*
%TO.P,J2,3,Pin_3*%
%TO.N,/IO23*%
X135290001Y-112740000D03*
%TO.P,J2,4,Pin_4*%
%TO.N,/IO19*%
X137830000Y-112740000D03*
%TO.P,J2,5,Pin_5*%
%TO.N,unconnected-(J2-Pin_5-Pad5)*%
X140370001Y-112740000D03*
%TO.P,J2,6,Pin_6*%
%TO.N,/GND2*%
X142910001Y-112740000D03*
%TO.P,J2,7,Pin_7*%
%TO.N,/IO17*%
X145450001Y-112740000D03*
%TO.P,J2,8,Pin_8*%
%TO.N,/IO16*%
X147990001Y-112740000D03*
%TD*%
D10*
%TO.P,J1,1,Pin_1*%
%TO.N,/3.3V*%
X161600000Y-60500000D03*
D11*
%TO.P,J1,2,Pin_2*%
%TO.N,/GND1*%
X161600000Y-63040000D03*
%TO.P,J1,3,Pin_3*%
%TO.N,/RST*%
X161600000Y-65580000D03*
%TO.P,J1,4,Pin_4*%
%TO.N,/GND2*%
X161600000Y-68120000D03*
%TO.P,J1,5,Pin_5*%
%TO.N,/IO2*%
X161600000Y-70660000D03*
%TO.P,J1,6,Pin_6*%
%TO.N,/IO12*%
X161600000Y-73200000D03*
%TO.P,J1,7,Pin_7*%
%TO.N,/IO13*%
X161600000Y-75740000D03*
%TO.P,J1,8,Pin_8*%
%TO.N,/IO14*%
X161600000Y-78280000D03*
%TO.P,J1,9,Pin_9*%
%TO.N,/IO15*%
X161600000Y-80820000D03*
%TO.P,J1,10,Pin_10*%
%TO.N,/IO18*%
X161600000Y-83360000D03*
%TO.P,J1,11,Pin_11*%
%TO.N,/IO19*%
X161600000Y-85900000D03*
%TO.P,J1,12,Pin_12*%
%TO.N,/IO25*%
X161600000Y-88440000D03*
%TO.P,J1,13,Pin_13*%
%TO.N,/IO26*%
X161600000Y-90980000D03*
%TO.P,J1,14,Pin_14*%
%TO.N,/IO27*%
X161600000Y-93520000D03*
%TO.P,J1,15,Pin_15*%
%TO.N,/IO32*%
X161600000Y-96060000D03*
%TO.P,J1,16,Pin_16*%
%TO.N,/IO33*%
X161600000Y-98600000D03*
%TO.P,J1,17,Pin_17*%
%TO.N,/IO34*%
X161600000Y-101140000D03*
%TO.P,J1,18,Pin_18*%
%TO.N,/IO35*%
X161600000Y-103680000D03*
%TO.P,J1,19,Pin_19*%
%TO.N,/IO36*%
X161600000Y-106220000D03*
%TO.P,J1,20,Pin_20*%
%TO.N,/IO39*%
X161600000Y-108760000D03*
D10*
%TO.P,J1,21,Pin_21*%
%TO.N,/5V*%
X189830000Y-60500000D03*
D11*
%TO.P,J1,22,Pin_22*%
%TO.N,/GND3*%
X189830000Y-63040000D03*
%TO.P,J1,23,Pin_23*%
%TO.N,/IO3*%
X189830000Y-65580000D03*
%TO.P,J1,24,Pin_24*%
%TO.N,/IO1*%
X189830000Y-68120000D03*
%TO.P,J1,25,Pin_25*%
%TO.N,/IO0*%
X189830000Y-70660000D03*
%TO.P,J1,26,Pin_26*%
%TO.N,/IO4*%
X189830000Y-73200000D03*
%TO.P,J1,27,Pin_27*%
%TO.N,/IO5*%
X189830000Y-75740000D03*
%TO.P,J1,28,Pin_28*%
%TO.N,/IO16*%
X189830000Y-78280000D03*
%TO.P,J1,29,Pin_29*%
%TO.N,/IO17*%
X189830000Y-80820000D03*
%TO.P,J1,30,Pin_30*%
%TO.N,/IO21*%
X189830000Y-83360000D03*
%TO.P,J1,31,Pin_31*%
%TO.N,/IO22*%
X189830000Y-85900000D03*
%TO.P,J1,32,Pin_32*%
%TO.N,/IO23*%
X189830000Y-88440000D03*
%TD*%
D10*
%TO.P,J3,1,Pin_1*%
%TO.N,/BATT-*%
X130400000Y-120434000D03*
D11*
%TO.P,J3,2,Pin_2*%
%TO.N,/BATT+*%
X132940000Y-120434000D03*
%TO.P,J3,3,Pin_3*%
%TO.N,/IO25*%
X135480000Y-120434000D03*
%TO.P,J3,4,Pin_4*%
%TO.N,/IO26*%
X138020000Y-120434000D03*
%TO.P,J3,5,Pin_5*%
%TO.N,/GND1*%
X140560000Y-120434000D03*
%TO.P,J3,6,Pin_6*%
%TO.N,/3.3V*%
X143100000Y-120434000D03*
%TD*%
D12*
%TO.N,/IO19*%
X151900000Y-105800000D03*
X165450000Y-102950000D03*
%TO.N,/IO18*%
X166750000Y-101350000D03*
%TO.N,/IO16*%
X166550000Y-99150000D03*
X173700000Y-83750000D03*
%TO.N,/IO5*%
X175700000Y-122850000D03*
%TO.N,/BATT-*%
X147050000Y-119450000D03*
%TO.N,/BATT+*%
X141300000Y-117450000D03*
X148550000Y-117500000D03*
%TD*%
D13*
%TO.N,/IO26*%
X141086000Y-123500000D02*
X144800000Y-123500000D01*
X168100000Y-109350000D02*
X168100000Y-97480000D01*
X164550000Y-112900000D02*
X168100000Y-109350000D01*
X138020000Y-120434000D02*
X141086000Y-123500000D01*
X168100000Y-97480000D02*
X161600000Y-90980000D01*
X155400000Y-112900000D02*
X164550000Y-112900000D01*
X144800000Y-123500000D02*
X155400000Y-112900000D01*
%TO.N,/IO25*%
X169400000Y-96240000D02*
X169400000Y-123500000D01*
X164800000Y-128100000D02*
X143146000Y-128100000D01*
X169400000Y-123500000D02*
X164800000Y-128100000D01*
X161600000Y-88440000D02*
X169400000Y-96240000D01*
X143146000Y-128100000D02*
X135480000Y-120434000D01*
%TO.N,/IO19*%
X162215000Y-107585000D02*
X165450000Y-104350000D01*
X165450000Y-104350000D02*
X165450000Y-102950000D01*
X153685000Y-107585000D02*
X162215000Y-107585000D01*
X151900000Y-105800000D02*
X153685000Y-107585000D01*
%TO.N,/IO18*%
X135910001Y-115900000D02*
X132750001Y-112740000D01*
X166750000Y-105271701D02*
X159571701Y-112450000D01*
X166750000Y-101350000D02*
X166750000Y-105271701D01*
X147650000Y-115900000D02*
X135910001Y-115900000D01*
X159571701Y-112450000D02*
X151100000Y-112450000D01*
X151100000Y-112450000D02*
X147650000Y-115900000D01*
%TO.N,/IO17*%
X161303299Y-87075000D02*
X160225000Y-88153299D01*
X160225000Y-88153299D02*
X160225000Y-94825000D01*
X145450001Y-107399999D02*
X156800000Y-96050000D01*
X186700000Y-83950000D02*
X178600000Y-83950000D01*
X156800000Y-96050000D02*
X159000000Y-96050000D01*
X175475000Y-87075000D02*
X161303299Y-87075000D01*
X159000000Y-96050000D02*
X160225000Y-94825000D01*
X145450001Y-112740000D02*
X145450001Y-107399999D01*
X189830000Y-80820000D02*
X186700000Y-83950000D01*
X178600000Y-83950000D02*
X175475000Y-87075000D01*
%TO.N,/IO16*%
X165685000Y-99965000D02*
X166500000Y-99150000D01*
X147990001Y-112740000D02*
X147990001Y-107309999D01*
X166550000Y-99150000D02*
X166550000Y-99100000D01*
X179170000Y-78280000D02*
X189830000Y-78280000D01*
X173700000Y-83750000D02*
X179170000Y-78280000D01*
X166550000Y-99100000D02*
X166500000Y-99150000D01*
X155335000Y-99965000D02*
X165685000Y-99965000D01*
X151800000Y-103500000D02*
X155335000Y-99965000D01*
X147990001Y-107309999D02*
X151800000Y-103500000D01*
X166500000Y-99150000D02*
X166550000Y-99150000D01*
%TO.N,/IO5*%
X183368222Y-84725000D02*
X175700000Y-92393222D01*
X175700000Y-92393222D02*
X175700000Y-122850000D01*
X191050000Y-83850000D02*
X190175000Y-84725000D01*
X191050000Y-76960000D02*
X191050000Y-83850000D01*
X189830000Y-75740000D02*
X191050000Y-76960000D01*
X190175000Y-84725000D02*
X183368222Y-84725000D01*
%TO.N,/GND2*%
X155650000Y-95600000D02*
X142910001Y-108339999D01*
X142910001Y-108339999D02*
X142910001Y-112740000D01*
X158186778Y-95600000D02*
X155650000Y-95600000D01*
X159170000Y-94616778D02*
X158186778Y-95600000D01*
X159170000Y-70550000D02*
X159170000Y-94616778D01*
X161600000Y-68120000D02*
X159170000Y-70550000D01*
D14*
%TO.N,/BATT-*%
X147050000Y-119450000D02*
X146884000Y-119284000D01*
X146884000Y-119284000D02*
X131550000Y-119284000D01*
X131550000Y-119284000D02*
X130400000Y-120434000D01*
%TO.N,/BATT+*%
X148550000Y-117500000D02*
X141350000Y-117500000D01*
%TD*%
M02*
