%TF.GenerationSoftware,KiCad,Pcbnew,7.0.5*%
%TF.CreationDate,2024-03-29T22:29:18-04:00*%
%TF.ProjectId,UWB_PCB,5557425f-5043-4422-9e6b-696361645f70,rev?*%
%TF.SameCoordinates,Original*%
%TF.FileFunction,Soldermask,Bot*%
%TF.FilePolarity,Negative*%
%FSLAX46Y46*%
G04 Gerber Fmt 4.6, Leading zero omitted, Abs format (unit mm)*
G04 Created by KiCad (PCBNEW 7.0.5) date 2024-03-29 22:29:18*
%MOMM*%
%LPD*%
G01*
G04 APERTURE LIST*
%ADD10R,1.700000X1.700000*%
%ADD11O,1.700000X1.700000*%
G04 APERTURE END LIST*
D10*
%TO.C,J2*%
X130210001Y-112740000D03*
D11*
X132750001Y-112740000D03*
X135290001Y-112740000D03*
X137830000Y-112740000D03*
X140370001Y-112740000D03*
X142910001Y-112740000D03*
X145450001Y-112740000D03*
X147990001Y-112740000D03*
%TD*%
D10*
%TO.C,J1*%
X161600000Y-60500000D03*
D11*
X161600000Y-63040000D03*
X161600000Y-65580000D03*
X161600000Y-68120000D03*
X161600000Y-70660000D03*
X161600000Y-73200000D03*
X161600000Y-75740000D03*
X161600000Y-78280000D03*
X161600000Y-80820000D03*
X161600000Y-83360000D03*
X161600000Y-85900000D03*
X161600000Y-88440000D03*
X161600000Y-90980000D03*
X161600000Y-93520000D03*
X161600000Y-96060000D03*
X161600000Y-98600000D03*
X161600000Y-101140000D03*
X161600000Y-103680000D03*
X161600000Y-106220000D03*
X161600000Y-108760000D03*
D10*
X189830000Y-60500000D03*
D11*
X189830000Y-63040000D03*
X189830000Y-65580000D03*
X189830000Y-68120000D03*
X189830000Y-70660000D03*
X189830000Y-73200000D03*
X189830000Y-75740000D03*
X189830000Y-78280000D03*
X189830000Y-80820000D03*
X189830000Y-83360000D03*
X189830000Y-85900000D03*
X189830000Y-88440000D03*
%TD*%
D10*
%TO.C,J3*%
X130400000Y-120434000D03*
D11*
X132940000Y-120434000D03*
X135480000Y-120434000D03*
X138020000Y-120434000D03*
X140560000Y-120434000D03*
X143100000Y-120434000D03*
%TD*%
M02*
