M48
; DRILL file {KiCad 7.0.5} date Sat Feb 24 19:06:47 2024
; FORMAT={-:-/ absolute / metric / decimal}
; #@! TF.CreationDate,2024-02-24T19:06:47-05:00
; #@! TF.GenerationSoftware,Kicad,Pcbnew,7.0.5
; #@! TF.FileFunction,Plated,1,2,PTH
FMAT,2
METRIC
; #@! TA.AperFunction,Plated,PTH,ViaDrill
T1C0.400
; #@! TA.AperFunction,Plated,PTH,ComponentDrill
T2C1.000
%
G90
G05
T1
X130.85Y-109.7
X135.75Y-109.9
X142.45Y-110.15
X144.9Y-110.1
X148.65Y-109.85
X154.65Y-106.4
X155.05Y-103.8
X164.5Y-87.55
X164.55Y-75.0
X164.75Y-90.1
X166.0Y-91.15
X166.5Y-93.95
X167.75Y-106.65
X170.0Y-108.45
T2
X130.21Y-112.74
X132.75Y-112.74
X135.29Y-112.74
X137.83Y-112.74
X140.37Y-112.74
X142.91Y-112.74
X145.45Y-112.74
X147.99Y-112.74
X161.6Y-60.5
X161.6Y-63.04
X161.6Y-65.58
X161.6Y-68.12
X161.6Y-70.66
X161.6Y-73.2
X161.6Y-75.74
X161.6Y-78.28
X161.6Y-80.82
X161.6Y-83.36
X161.6Y-85.9
X161.6Y-88.44
X161.6Y-90.98
X161.6Y-93.52
X161.6Y-96.06
X161.6Y-98.6
X161.6Y-101.14
X161.6Y-103.68
X161.6Y-106.22
X161.6Y-108.76
X188.83Y-60.5
X188.83Y-63.04
X188.83Y-65.58
X188.83Y-68.12
X188.83Y-70.66
X188.83Y-73.2
X188.83Y-75.74
X188.83Y-78.28
X188.83Y-80.82
X188.83Y-83.36
X188.83Y-85.9
X188.83Y-88.44
T0
M30
