%TF.GenerationSoftware,KiCad,Pcbnew,7.0.5*%
%TF.CreationDate,2024-03-29T22:25:32-04:00*%
%TF.ProjectId,UWB_PCB,5557425f-5043-4422-9e6b-696361645f70,rev?*%
%TF.SameCoordinates,Original*%
%TF.FileFunction,Legend,Bot*%
%TF.FilePolarity,Positive*%
%FSLAX46Y46*%
G04 Gerber Fmt 4.6, Leading zero omitted, Abs format (unit mm)*
G04 Created by KiCad (PCBNEW 7.0.5) date 2024-03-29 22:25:32*
%MOMM*%
%LPD*%
G01*
G04 APERTURE LIST*
%ADD10C,0.200000*%
%ADD11R,1.700000X1.700000*%
%ADD12O,1.700000X1.700000*%
G04 APERTURE END LIST*
D10*
X186273183Y-141767219D02*
X185701755Y-141767219D01*
X185987469Y-142767219D02*
X185987469Y-141767219D01*
X184987469Y-142719600D02*
X185082707Y-142767219D01*
X185082707Y-142767219D02*
X185273183Y-142767219D01*
X185273183Y-142767219D02*
X185368421Y-142719600D01*
X185368421Y-142719600D02*
X185416040Y-142624361D01*
X185416040Y-142624361D02*
X185416040Y-142243409D01*
X185416040Y-142243409D02*
X185368421Y-142148171D01*
X185368421Y-142148171D02*
X185273183Y-142100552D01*
X185273183Y-142100552D02*
X185082707Y-142100552D01*
X185082707Y-142100552D02*
X184987469Y-142148171D01*
X184987469Y-142148171D02*
X184939850Y-142243409D01*
X184939850Y-142243409D02*
X184939850Y-142338647D01*
X184939850Y-142338647D02*
X185416040Y-142433885D01*
X184082707Y-142767219D02*
X184082707Y-142243409D01*
X184082707Y-142243409D02*
X184130326Y-142148171D01*
X184130326Y-142148171D02*
X184225564Y-142100552D01*
X184225564Y-142100552D02*
X184416040Y-142100552D01*
X184416040Y-142100552D02*
X184511278Y-142148171D01*
X184082707Y-142719600D02*
X184177945Y-142767219D01*
X184177945Y-142767219D02*
X184416040Y-142767219D01*
X184416040Y-142767219D02*
X184511278Y-142719600D01*
X184511278Y-142719600D02*
X184558897Y-142624361D01*
X184558897Y-142624361D02*
X184558897Y-142529123D01*
X184558897Y-142529123D02*
X184511278Y-142433885D01*
X184511278Y-142433885D02*
X184416040Y-142386266D01*
X184416040Y-142386266D02*
X184177945Y-142386266D01*
X184177945Y-142386266D02*
X184082707Y-142338647D01*
X183606516Y-142767219D02*
X183606516Y-142100552D01*
X183606516Y-142195790D02*
X183558897Y-142148171D01*
X183558897Y-142148171D02*
X183463659Y-142100552D01*
X183463659Y-142100552D02*
X183320802Y-142100552D01*
X183320802Y-142100552D02*
X183225564Y-142148171D01*
X183225564Y-142148171D02*
X183177945Y-142243409D01*
X183177945Y-142243409D02*
X183177945Y-142767219D01*
X183177945Y-142243409D02*
X183130326Y-142148171D01*
X183130326Y-142148171D02*
X183035088Y-142100552D01*
X183035088Y-142100552D02*
X182892231Y-142100552D01*
X182892231Y-142100552D02*
X182796992Y-142148171D01*
X182796992Y-142148171D02*
X182749373Y-142243409D01*
X182749373Y-142243409D02*
X182749373Y-142767219D01*
X181511278Y-142767219D02*
X181511278Y-141767219D01*
X181511278Y-141767219D02*
X181177945Y-142481504D01*
X181177945Y-142481504D02*
X180844612Y-141767219D01*
X180844612Y-141767219D02*
X180844612Y-142767219D01*
X179987469Y-142719600D02*
X180082707Y-142767219D01*
X180082707Y-142767219D02*
X180273183Y-142767219D01*
X180273183Y-142767219D02*
X180368421Y-142719600D01*
X180368421Y-142719600D02*
X180416040Y-142624361D01*
X180416040Y-142624361D02*
X180416040Y-142243409D01*
X180416040Y-142243409D02*
X180368421Y-142148171D01*
X180368421Y-142148171D02*
X180273183Y-142100552D01*
X180273183Y-142100552D02*
X180082707Y-142100552D01*
X180082707Y-142100552D02*
X179987469Y-142148171D01*
X179987469Y-142148171D02*
X179939850Y-142243409D01*
X179939850Y-142243409D02*
X179939850Y-142338647D01*
X179939850Y-142338647D02*
X180416040Y-142433885D01*
X179511278Y-142767219D02*
X179511278Y-142100552D01*
X179511278Y-142195790D02*
X179463659Y-142148171D01*
X179463659Y-142148171D02*
X179368421Y-142100552D01*
X179368421Y-142100552D02*
X179225564Y-142100552D01*
X179225564Y-142100552D02*
X179130326Y-142148171D01*
X179130326Y-142148171D02*
X179082707Y-142243409D01*
X179082707Y-142243409D02*
X179082707Y-142767219D01*
X179082707Y-142243409D02*
X179035088Y-142148171D01*
X179035088Y-142148171D02*
X178939850Y-142100552D01*
X178939850Y-142100552D02*
X178796993Y-142100552D01*
X178796993Y-142100552D02*
X178701754Y-142148171D01*
X178701754Y-142148171D02*
X178654135Y-142243409D01*
X178654135Y-142243409D02*
X178654135Y-142767219D01*
X178177945Y-142767219D02*
X178177945Y-141767219D01*
X178177945Y-142148171D02*
X178082707Y-142100552D01*
X178082707Y-142100552D02*
X177892231Y-142100552D01*
X177892231Y-142100552D02*
X177796993Y-142148171D01*
X177796993Y-142148171D02*
X177749374Y-142195790D01*
X177749374Y-142195790D02*
X177701755Y-142291028D01*
X177701755Y-142291028D02*
X177701755Y-142576742D01*
X177701755Y-142576742D02*
X177749374Y-142671980D01*
X177749374Y-142671980D02*
X177796993Y-142719600D01*
X177796993Y-142719600D02*
X177892231Y-142767219D01*
X177892231Y-142767219D02*
X178082707Y-142767219D01*
X178082707Y-142767219D02*
X178177945Y-142719600D01*
X176892231Y-142719600D02*
X176987469Y-142767219D01*
X176987469Y-142767219D02*
X177177945Y-142767219D01*
X177177945Y-142767219D02*
X177273183Y-142719600D01*
X177273183Y-142719600D02*
X177320802Y-142624361D01*
X177320802Y-142624361D02*
X177320802Y-142243409D01*
X177320802Y-142243409D02*
X177273183Y-142148171D01*
X177273183Y-142148171D02*
X177177945Y-142100552D01*
X177177945Y-142100552D02*
X176987469Y-142100552D01*
X176987469Y-142100552D02*
X176892231Y-142148171D01*
X176892231Y-142148171D02*
X176844612Y-142243409D01*
X176844612Y-142243409D02*
X176844612Y-142338647D01*
X176844612Y-142338647D02*
X177320802Y-142433885D01*
X176416040Y-142767219D02*
X176416040Y-142100552D01*
X176416040Y-142291028D02*
X176368421Y-142195790D01*
X176368421Y-142195790D02*
X176320802Y-142148171D01*
X176320802Y-142148171D02*
X176225564Y-142100552D01*
X176225564Y-142100552D02*
X176130326Y-142100552D01*
X175844611Y-142719600D02*
X175749373Y-142767219D01*
X175749373Y-142767219D02*
X175558897Y-142767219D01*
X175558897Y-142767219D02*
X175463659Y-142719600D01*
X175463659Y-142719600D02*
X175416040Y-142624361D01*
X175416040Y-142624361D02*
X175416040Y-142576742D01*
X175416040Y-142576742D02*
X175463659Y-142481504D01*
X175463659Y-142481504D02*
X175558897Y-142433885D01*
X175558897Y-142433885D02*
X175701754Y-142433885D01*
X175701754Y-142433885D02*
X175796992Y-142386266D01*
X175796992Y-142386266D02*
X175844611Y-142291028D01*
X175844611Y-142291028D02*
X175844611Y-142243409D01*
X175844611Y-142243409D02*
X175796992Y-142148171D01*
X175796992Y-142148171D02*
X175701754Y-142100552D01*
X175701754Y-142100552D02*
X175558897Y-142100552D01*
X175558897Y-142100552D02*
X175463659Y-142148171D01*
X174987468Y-142671980D02*
X174939849Y-142719600D01*
X174939849Y-142719600D02*
X174987468Y-142767219D01*
X174987468Y-142767219D02*
X175035087Y-142719600D01*
X175035087Y-142719600D02*
X174987468Y-142671980D01*
X174987468Y-142671980D02*
X174987468Y-142767219D01*
X174987468Y-142148171D02*
X174939849Y-142195790D01*
X174939849Y-142195790D02*
X174987468Y-142243409D01*
X174987468Y-142243409D02*
X175035087Y-142195790D01*
X175035087Y-142195790D02*
X174987468Y-142148171D01*
X174987468Y-142148171D02*
X174987468Y-142243409D01*
X185844612Y-143377219D02*
X185844612Y-144091504D01*
X185844612Y-144091504D02*
X185892231Y-144234361D01*
X185892231Y-144234361D02*
X185987469Y-144329600D01*
X185987469Y-144329600D02*
X186130326Y-144377219D01*
X186130326Y-144377219D02*
X186225564Y-144377219D01*
X185225564Y-144377219D02*
X185320802Y-144329600D01*
X185320802Y-144329600D02*
X185368421Y-144281980D01*
X185368421Y-144281980D02*
X185416040Y-144186742D01*
X185416040Y-144186742D02*
X185416040Y-143901028D01*
X185416040Y-143901028D02*
X185368421Y-143805790D01*
X185368421Y-143805790D02*
X185320802Y-143758171D01*
X185320802Y-143758171D02*
X185225564Y-143710552D01*
X185225564Y-143710552D02*
X185082707Y-143710552D01*
X185082707Y-143710552D02*
X184987469Y-143758171D01*
X184987469Y-143758171D02*
X184939850Y-143805790D01*
X184939850Y-143805790D02*
X184892231Y-143901028D01*
X184892231Y-143901028D02*
X184892231Y-144186742D01*
X184892231Y-144186742D02*
X184939850Y-144281980D01*
X184939850Y-144281980D02*
X184987469Y-144329600D01*
X184987469Y-144329600D02*
X185082707Y-144377219D01*
X185082707Y-144377219D02*
X185225564Y-144377219D01*
X184463659Y-144377219D02*
X184463659Y-143377219D01*
X184035088Y-144377219D02*
X184035088Y-143853409D01*
X184035088Y-143853409D02*
X184082707Y-143758171D01*
X184082707Y-143758171D02*
X184177945Y-143710552D01*
X184177945Y-143710552D02*
X184320802Y-143710552D01*
X184320802Y-143710552D02*
X184416040Y-143758171D01*
X184416040Y-143758171D02*
X184463659Y-143805790D01*
X183558897Y-143710552D02*
X183558897Y-144377219D01*
X183558897Y-143805790D02*
X183511278Y-143758171D01*
X183511278Y-143758171D02*
X183416040Y-143710552D01*
X183416040Y-143710552D02*
X183273183Y-143710552D01*
X183273183Y-143710552D02*
X183177945Y-143758171D01*
X183177945Y-143758171D02*
X183130326Y-143853409D01*
X183130326Y-143853409D02*
X183130326Y-144377219D01*
X181320802Y-144281980D02*
X181368421Y-144329600D01*
X181368421Y-144329600D02*
X181511278Y-144377219D01*
X181511278Y-144377219D02*
X181606516Y-144377219D01*
X181606516Y-144377219D02*
X181749373Y-144329600D01*
X181749373Y-144329600D02*
X181844611Y-144234361D01*
X181844611Y-144234361D02*
X181892230Y-144139123D01*
X181892230Y-144139123D02*
X181939849Y-143948647D01*
X181939849Y-143948647D02*
X181939849Y-143805790D01*
X181939849Y-143805790D02*
X181892230Y-143615314D01*
X181892230Y-143615314D02*
X181844611Y-143520076D01*
X181844611Y-143520076D02*
X181749373Y-143424838D01*
X181749373Y-143424838D02*
X181606516Y-143377219D01*
X181606516Y-143377219D02*
X181511278Y-143377219D01*
X181511278Y-143377219D02*
X181368421Y-143424838D01*
X181368421Y-143424838D02*
X181320802Y-143472457D01*
X180463659Y-143710552D02*
X180463659Y-144377219D01*
X180892230Y-143710552D02*
X180892230Y-144234361D01*
X180892230Y-144234361D02*
X180844611Y-144329600D01*
X180844611Y-144329600D02*
X180749373Y-144377219D01*
X180749373Y-144377219D02*
X180606516Y-144377219D01*
X180606516Y-144377219D02*
X180511278Y-144329600D01*
X180511278Y-144329600D02*
X180463659Y-144281980D01*
X179844611Y-144377219D02*
X179939849Y-144329600D01*
X179939849Y-144329600D02*
X179987468Y-144234361D01*
X179987468Y-144234361D02*
X179987468Y-143377219D01*
X179320801Y-144377219D02*
X179416039Y-144329600D01*
X179416039Y-144329600D02*
X179463658Y-144234361D01*
X179463658Y-144234361D02*
X179463658Y-143377219D01*
X178558896Y-144329600D02*
X178654134Y-144377219D01*
X178654134Y-144377219D02*
X178844610Y-144377219D01*
X178844610Y-144377219D02*
X178939848Y-144329600D01*
X178939848Y-144329600D02*
X178987467Y-144234361D01*
X178987467Y-144234361D02*
X178987467Y-143853409D01*
X178987467Y-143853409D02*
X178939848Y-143758171D01*
X178939848Y-143758171D02*
X178844610Y-143710552D01*
X178844610Y-143710552D02*
X178654134Y-143710552D01*
X178654134Y-143710552D02*
X178558896Y-143758171D01*
X178558896Y-143758171D02*
X178511277Y-143853409D01*
X178511277Y-143853409D02*
X178511277Y-143948647D01*
X178511277Y-143948647D02*
X178987467Y-144043885D01*
X178177943Y-143710552D02*
X177939848Y-144377219D01*
X177701753Y-143710552D02*
X177939848Y-144377219D01*
X177939848Y-144377219D02*
X178035086Y-144615314D01*
X178035086Y-144615314D02*
X178082705Y-144662933D01*
X178082705Y-144662933D02*
X178177943Y-144710552D01*
X185939850Y-145511028D02*
X185939850Y-145987219D01*
X186273183Y-144987219D02*
X185939850Y-145511028D01*
X185939850Y-145511028D02*
X185606517Y-144987219D01*
X184844612Y-145987219D02*
X184844612Y-145463409D01*
X184844612Y-145463409D02*
X184892231Y-145368171D01*
X184892231Y-145368171D02*
X184987469Y-145320552D01*
X184987469Y-145320552D02*
X185177945Y-145320552D01*
X185177945Y-145320552D02*
X185273183Y-145368171D01*
X184844612Y-145939600D02*
X184939850Y-145987219D01*
X184939850Y-145987219D02*
X185177945Y-145987219D01*
X185177945Y-145987219D02*
X185273183Y-145939600D01*
X185273183Y-145939600D02*
X185320802Y-145844361D01*
X185320802Y-145844361D02*
X185320802Y-145749123D01*
X185320802Y-145749123D02*
X185273183Y-145653885D01*
X185273183Y-145653885D02*
X185177945Y-145606266D01*
X185177945Y-145606266D02*
X184939850Y-145606266D01*
X184939850Y-145606266D02*
X184844612Y-145558647D01*
X184368421Y-145320552D02*
X184368421Y-145987219D01*
X184368421Y-145415790D02*
X184320802Y-145368171D01*
X184320802Y-145368171D02*
X184225564Y-145320552D01*
X184225564Y-145320552D02*
X184082707Y-145320552D01*
X184082707Y-145320552D02*
X183987469Y-145368171D01*
X183987469Y-145368171D02*
X183939850Y-145463409D01*
X183939850Y-145463409D02*
X183939850Y-145987219D01*
X183035088Y-145320552D02*
X183035088Y-146130076D01*
X183035088Y-146130076D02*
X183082707Y-146225314D01*
X183082707Y-146225314D02*
X183130326Y-146272933D01*
X183130326Y-146272933D02*
X183225564Y-146320552D01*
X183225564Y-146320552D02*
X183368421Y-146320552D01*
X183368421Y-146320552D02*
X183463659Y-146272933D01*
X183035088Y-145939600D02*
X183130326Y-145987219D01*
X183130326Y-145987219D02*
X183320802Y-145987219D01*
X183320802Y-145987219D02*
X183416040Y-145939600D01*
X183416040Y-145939600D02*
X183463659Y-145891980D01*
X183463659Y-145891980D02*
X183511278Y-145796742D01*
X183511278Y-145796742D02*
X183511278Y-145511028D01*
X183511278Y-145511028D02*
X183463659Y-145415790D01*
X183463659Y-145415790D02*
X183416040Y-145368171D01*
X183416040Y-145368171D02*
X183320802Y-145320552D01*
X183320802Y-145320552D02*
X183130326Y-145320552D01*
X183130326Y-145320552D02*
X183035088Y-145368171D01*
X182654135Y-145320552D02*
X182416040Y-145987219D01*
X182177945Y-145320552D02*
X182416040Y-145987219D01*
X182416040Y-145987219D02*
X182511278Y-146225314D01*
X182511278Y-146225314D02*
X182558897Y-146272933D01*
X182558897Y-146272933D02*
X182654135Y-146320552D01*
X181368421Y-145987219D02*
X181368421Y-145463409D01*
X181368421Y-145463409D02*
X181416040Y-145368171D01*
X181416040Y-145368171D02*
X181511278Y-145320552D01*
X181511278Y-145320552D02*
X181701754Y-145320552D01*
X181701754Y-145320552D02*
X181796992Y-145368171D01*
X181368421Y-145939600D02*
X181463659Y-145987219D01*
X181463659Y-145987219D02*
X181701754Y-145987219D01*
X181701754Y-145987219D02*
X181796992Y-145939600D01*
X181796992Y-145939600D02*
X181844611Y-145844361D01*
X181844611Y-145844361D02*
X181844611Y-145749123D01*
X181844611Y-145749123D02*
X181796992Y-145653885D01*
X181796992Y-145653885D02*
X181701754Y-145606266D01*
X181701754Y-145606266D02*
X181463659Y-145606266D01*
X181463659Y-145606266D02*
X181368421Y-145558647D01*
X180892230Y-145320552D02*
X180892230Y-145987219D01*
X180892230Y-145415790D02*
X180844611Y-145368171D01*
X180844611Y-145368171D02*
X180749373Y-145320552D01*
X180749373Y-145320552D02*
X180606516Y-145320552D01*
X180606516Y-145320552D02*
X180511278Y-145368171D01*
X180511278Y-145368171D02*
X180463659Y-145463409D01*
X180463659Y-145463409D02*
X180463659Y-145987219D01*
X179558897Y-145320552D02*
X179558897Y-146130076D01*
X179558897Y-146130076D02*
X179606516Y-146225314D01*
X179606516Y-146225314D02*
X179654135Y-146272933D01*
X179654135Y-146272933D02*
X179749373Y-146320552D01*
X179749373Y-146320552D02*
X179892230Y-146320552D01*
X179892230Y-146320552D02*
X179987468Y-146272933D01*
X179558897Y-145939600D02*
X179654135Y-145987219D01*
X179654135Y-145987219D02*
X179844611Y-145987219D01*
X179844611Y-145987219D02*
X179939849Y-145939600D01*
X179939849Y-145939600D02*
X179987468Y-145891980D01*
X179987468Y-145891980D02*
X180035087Y-145796742D01*
X180035087Y-145796742D02*
X180035087Y-145511028D01*
X180035087Y-145511028D02*
X179987468Y-145415790D01*
X179987468Y-145415790D02*
X179939849Y-145368171D01*
X179939849Y-145368171D02*
X179844611Y-145320552D01*
X179844611Y-145320552D02*
X179654135Y-145320552D01*
X179654135Y-145320552D02*
X179558897Y-145368171D01*
X178416039Y-144987219D02*
X177749373Y-144987219D01*
X177749373Y-144987219D02*
X178416039Y-145987219D01*
X178416039Y-145987219D02*
X177749373Y-145987219D01*
X177368420Y-145987219D02*
X177368420Y-144987219D01*
X176939849Y-145987219D02*
X176939849Y-145463409D01*
X176939849Y-145463409D02*
X176987468Y-145368171D01*
X176987468Y-145368171D02*
X177082706Y-145320552D01*
X177082706Y-145320552D02*
X177225563Y-145320552D01*
X177225563Y-145320552D02*
X177320801Y-145368171D01*
X177320801Y-145368171D02*
X177368420Y-145415790D01*
X176035087Y-145987219D02*
X176035087Y-145463409D01*
X176035087Y-145463409D02*
X176082706Y-145368171D01*
X176082706Y-145368171D02*
X176177944Y-145320552D01*
X176177944Y-145320552D02*
X176368420Y-145320552D01*
X176368420Y-145320552D02*
X176463658Y-145368171D01*
X176035087Y-145939600D02*
X176130325Y-145987219D01*
X176130325Y-145987219D02*
X176368420Y-145987219D01*
X176368420Y-145987219D02*
X176463658Y-145939600D01*
X176463658Y-145939600D02*
X176511277Y-145844361D01*
X176511277Y-145844361D02*
X176511277Y-145749123D01*
X176511277Y-145749123D02*
X176463658Y-145653885D01*
X176463658Y-145653885D02*
X176368420Y-145606266D01*
X176368420Y-145606266D02*
X176130325Y-145606266D01*
X176130325Y-145606266D02*
X176035087Y-145558647D01*
X175558896Y-145320552D02*
X175558896Y-145987219D01*
X175558896Y-145415790D02*
X175511277Y-145368171D01*
X175511277Y-145368171D02*
X175416039Y-145320552D01*
X175416039Y-145320552D02*
X175273182Y-145320552D01*
X175273182Y-145320552D02*
X175177944Y-145368171D01*
X175177944Y-145368171D02*
X175130325Y-145463409D01*
X175130325Y-145463409D02*
X175130325Y-145987219D01*
X174225563Y-145320552D02*
X174225563Y-146130076D01*
X174225563Y-146130076D02*
X174273182Y-146225314D01*
X174273182Y-146225314D02*
X174320801Y-146272933D01*
X174320801Y-146272933D02*
X174416039Y-146320552D01*
X174416039Y-146320552D02*
X174558896Y-146320552D01*
X174558896Y-146320552D02*
X174654134Y-146272933D01*
X174225563Y-145939600D02*
X174320801Y-145987219D01*
X174320801Y-145987219D02*
X174511277Y-145987219D01*
X174511277Y-145987219D02*
X174606515Y-145939600D01*
X174606515Y-145939600D02*
X174654134Y-145891980D01*
X174654134Y-145891980D02*
X174701753Y-145796742D01*
X174701753Y-145796742D02*
X174701753Y-145511028D01*
X174701753Y-145511028D02*
X174654134Y-145415790D01*
X174654134Y-145415790D02*
X174606515Y-145368171D01*
X174606515Y-145368171D02*
X174511277Y-145320552D01*
X174511277Y-145320552D02*
X174320801Y-145320552D01*
X174320801Y-145320552D02*
X174225563Y-145368171D01*
X186130326Y-147597219D02*
X186130326Y-146597219D01*
X185558898Y-147597219D02*
X185987469Y-147025790D01*
X185558898Y-146597219D02*
X186130326Y-147168647D01*
X184701755Y-147597219D02*
X184701755Y-147073409D01*
X184701755Y-147073409D02*
X184749374Y-146978171D01*
X184749374Y-146978171D02*
X184844612Y-146930552D01*
X184844612Y-146930552D02*
X185035088Y-146930552D01*
X185035088Y-146930552D02*
X185130326Y-146978171D01*
X184701755Y-147549600D02*
X184796993Y-147597219D01*
X184796993Y-147597219D02*
X185035088Y-147597219D01*
X185035088Y-147597219D02*
X185130326Y-147549600D01*
X185130326Y-147549600D02*
X185177945Y-147454361D01*
X185177945Y-147454361D02*
X185177945Y-147359123D01*
X185177945Y-147359123D02*
X185130326Y-147263885D01*
X185130326Y-147263885D02*
X185035088Y-147216266D01*
X185035088Y-147216266D02*
X184796993Y-147216266D01*
X184796993Y-147216266D02*
X184701755Y-147168647D01*
X184225564Y-147597219D02*
X184225564Y-146930552D01*
X184225564Y-146597219D02*
X184273183Y-146644838D01*
X184273183Y-146644838D02*
X184225564Y-146692457D01*
X184225564Y-146692457D02*
X184177945Y-146644838D01*
X184177945Y-146644838D02*
X184225564Y-146597219D01*
X184225564Y-146597219D02*
X184225564Y-146692457D01*
X182987469Y-147597219D02*
X182987469Y-146597219D01*
X182511279Y-147597219D02*
X182511279Y-146930552D01*
X182511279Y-147025790D02*
X182463660Y-146978171D01*
X182463660Y-146978171D02*
X182368422Y-146930552D01*
X182368422Y-146930552D02*
X182225565Y-146930552D01*
X182225565Y-146930552D02*
X182130327Y-146978171D01*
X182130327Y-146978171D02*
X182082708Y-147073409D01*
X182082708Y-147073409D02*
X182082708Y-147597219D01*
X182082708Y-147073409D02*
X182035089Y-146978171D01*
X182035089Y-146978171D02*
X181939851Y-146930552D01*
X181939851Y-146930552D02*
X181796994Y-146930552D01*
X181796994Y-146930552D02*
X181701755Y-146978171D01*
X181701755Y-146978171D02*
X181654136Y-147073409D01*
X181654136Y-147073409D02*
X181654136Y-147597219D01*
X180796994Y-147549600D02*
X180892232Y-147597219D01*
X180892232Y-147597219D02*
X181082708Y-147597219D01*
X181082708Y-147597219D02*
X181177946Y-147549600D01*
X181177946Y-147549600D02*
X181225565Y-147454361D01*
X181225565Y-147454361D02*
X181225565Y-147073409D01*
X181225565Y-147073409D02*
X181177946Y-146978171D01*
X181177946Y-146978171D02*
X181082708Y-146930552D01*
X181082708Y-146930552D02*
X180892232Y-146930552D01*
X180892232Y-146930552D02*
X180796994Y-146978171D01*
X180796994Y-146978171D02*
X180749375Y-147073409D01*
X180749375Y-147073409D02*
X180749375Y-147168647D01*
X180749375Y-147168647D02*
X181225565Y-147263885D01*
X180320803Y-147597219D02*
X180320803Y-146930552D01*
X180320803Y-147121028D02*
X180273184Y-147025790D01*
X180273184Y-147025790D02*
X180225565Y-146978171D01*
X180225565Y-146978171D02*
X180130327Y-146930552D01*
X180130327Y-146930552D02*
X180035089Y-146930552D01*
X179796993Y-146930552D02*
X179558898Y-147597219D01*
X179320803Y-146930552D02*
X179558898Y-147597219D01*
X179558898Y-147597219D02*
X179654136Y-147835314D01*
X179654136Y-147835314D02*
X179701755Y-147882933D01*
X179701755Y-147882933D02*
X179796993Y-147930552D01*
X186177945Y-148921504D02*
X185701755Y-148921504D01*
X186273183Y-149207219D02*
X185939850Y-148207219D01*
X185939850Y-148207219D02*
X185606517Y-149207219D01*
X185273183Y-148540552D02*
X185273183Y-149207219D01*
X185273183Y-148635790D02*
X185225564Y-148588171D01*
X185225564Y-148588171D02*
X185130326Y-148540552D01*
X185130326Y-148540552D02*
X184987469Y-148540552D01*
X184987469Y-148540552D02*
X184892231Y-148588171D01*
X184892231Y-148588171D02*
X184844612Y-148683409D01*
X184844612Y-148683409D02*
X184844612Y-149207219D01*
X183939850Y-149207219D02*
X183939850Y-148683409D01*
X183939850Y-148683409D02*
X183987469Y-148588171D01*
X183987469Y-148588171D02*
X184082707Y-148540552D01*
X184082707Y-148540552D02*
X184273183Y-148540552D01*
X184273183Y-148540552D02*
X184368421Y-148588171D01*
X183939850Y-149159600D02*
X184035088Y-149207219D01*
X184035088Y-149207219D02*
X184273183Y-149207219D01*
X184273183Y-149207219D02*
X184368421Y-149159600D01*
X184368421Y-149159600D02*
X184416040Y-149064361D01*
X184416040Y-149064361D02*
X184416040Y-148969123D01*
X184416040Y-148969123D02*
X184368421Y-148873885D01*
X184368421Y-148873885D02*
X184273183Y-148826266D01*
X184273183Y-148826266D02*
X184035088Y-148826266D01*
X184035088Y-148826266D02*
X183939850Y-148778647D01*
X183463659Y-148540552D02*
X183463659Y-149207219D01*
X183463659Y-148635790D02*
X183416040Y-148588171D01*
X183416040Y-148588171D02*
X183320802Y-148540552D01*
X183320802Y-148540552D02*
X183177945Y-148540552D01*
X183177945Y-148540552D02*
X183082707Y-148588171D01*
X183082707Y-148588171D02*
X183035088Y-148683409D01*
X183035088Y-148683409D02*
X183035088Y-149207219D01*
X182701754Y-148540552D02*
X182320802Y-148540552D01*
X182558897Y-148207219D02*
X182558897Y-149064361D01*
X182558897Y-149064361D02*
X182511278Y-149159600D01*
X182511278Y-149159600D02*
X182416040Y-149207219D01*
X182416040Y-149207219D02*
X182320802Y-149207219D01*
X181987468Y-149207219D02*
X181987468Y-148207219D01*
X181558897Y-149207219D02*
X181558897Y-148683409D01*
X181558897Y-148683409D02*
X181606516Y-148588171D01*
X181606516Y-148588171D02*
X181701754Y-148540552D01*
X181701754Y-148540552D02*
X181844611Y-148540552D01*
X181844611Y-148540552D02*
X181939849Y-148588171D01*
X181939849Y-148588171D02*
X181987468Y-148635790D01*
X180368420Y-149159600D02*
X180225563Y-149207219D01*
X180225563Y-149207219D02*
X179987468Y-149207219D01*
X179987468Y-149207219D02*
X179892230Y-149159600D01*
X179892230Y-149159600D02*
X179844611Y-149111980D01*
X179844611Y-149111980D02*
X179796992Y-149016742D01*
X179796992Y-149016742D02*
X179796992Y-148921504D01*
X179796992Y-148921504D02*
X179844611Y-148826266D01*
X179844611Y-148826266D02*
X179892230Y-148778647D01*
X179892230Y-148778647D02*
X179987468Y-148731028D01*
X179987468Y-148731028D02*
X180177944Y-148683409D01*
X180177944Y-148683409D02*
X180273182Y-148635790D01*
X180273182Y-148635790D02*
X180320801Y-148588171D01*
X180320801Y-148588171D02*
X180368420Y-148492933D01*
X180368420Y-148492933D02*
X180368420Y-148397695D01*
X180368420Y-148397695D02*
X180320801Y-148302457D01*
X180320801Y-148302457D02*
X180273182Y-148254838D01*
X180273182Y-148254838D02*
X180177944Y-148207219D01*
X180177944Y-148207219D02*
X179939849Y-148207219D01*
X179939849Y-148207219D02*
X179796992Y-148254838D01*
X178939849Y-149207219D02*
X178939849Y-148683409D01*
X178939849Y-148683409D02*
X178987468Y-148588171D01*
X178987468Y-148588171D02*
X179082706Y-148540552D01*
X179082706Y-148540552D02*
X179273182Y-148540552D01*
X179273182Y-148540552D02*
X179368420Y-148588171D01*
X178939849Y-149159600D02*
X179035087Y-149207219D01*
X179035087Y-149207219D02*
X179273182Y-149207219D01*
X179273182Y-149207219D02*
X179368420Y-149159600D01*
X179368420Y-149159600D02*
X179416039Y-149064361D01*
X179416039Y-149064361D02*
X179416039Y-148969123D01*
X179416039Y-148969123D02*
X179368420Y-148873885D01*
X179368420Y-148873885D02*
X179273182Y-148826266D01*
X179273182Y-148826266D02*
X179035087Y-148826266D01*
X179035087Y-148826266D02*
X178939849Y-148778647D01*
X178463658Y-148540552D02*
X178463658Y-149207219D01*
X178463658Y-148635790D02*
X178416039Y-148588171D01*
X178416039Y-148588171D02*
X178320801Y-148540552D01*
X178320801Y-148540552D02*
X178177944Y-148540552D01*
X178177944Y-148540552D02*
X178082706Y-148588171D01*
X178082706Y-148588171D02*
X178035087Y-148683409D01*
X178035087Y-148683409D02*
X178035087Y-149207219D01*
X177558896Y-148540552D02*
X177558896Y-149397695D01*
X177558896Y-149397695D02*
X177606515Y-149492933D01*
X177606515Y-149492933D02*
X177701753Y-149540552D01*
X177701753Y-149540552D02*
X177749372Y-149540552D01*
X177558896Y-148207219D02*
X177606515Y-148254838D01*
X177606515Y-148254838D02*
X177558896Y-148302457D01*
X177558896Y-148302457D02*
X177511277Y-148254838D01*
X177511277Y-148254838D02*
X177558896Y-148207219D01*
X177558896Y-148207219D02*
X177558896Y-148302457D01*
X176654135Y-149207219D02*
X176654135Y-148683409D01*
X176654135Y-148683409D02*
X176701754Y-148588171D01*
X176701754Y-148588171D02*
X176796992Y-148540552D01*
X176796992Y-148540552D02*
X176987468Y-148540552D01*
X176987468Y-148540552D02*
X177082706Y-148588171D01*
X176654135Y-149159600D02*
X176749373Y-149207219D01*
X176749373Y-149207219D02*
X176987468Y-149207219D01*
X176987468Y-149207219D02*
X177082706Y-149159600D01*
X177082706Y-149159600D02*
X177130325Y-149064361D01*
X177130325Y-149064361D02*
X177130325Y-148969123D01*
X177130325Y-148969123D02*
X177082706Y-148873885D01*
X177082706Y-148873885D02*
X176987468Y-148826266D01*
X176987468Y-148826266D02*
X176749373Y-148826266D01*
X176749373Y-148826266D02*
X176654135Y-148778647D01*
X176273182Y-148540552D02*
X176035087Y-149207219D01*
X175796992Y-148540552D02*
X176035087Y-149207219D01*
X176035087Y-149207219D02*
X176130325Y-149445314D01*
X176130325Y-149445314D02*
X176177944Y-149492933D01*
X176177944Y-149492933D02*
X176273182Y-149540552D01*
X186130326Y-150817219D02*
X186130326Y-149817219D01*
X185558898Y-150817219D02*
X185987469Y-150245790D01*
X185558898Y-149817219D02*
X186130326Y-150388647D01*
X185225564Y-150150552D02*
X185035088Y-150817219D01*
X185035088Y-150817219D02*
X184844612Y-150341028D01*
X184844612Y-150341028D02*
X184654136Y-150817219D01*
X184654136Y-150817219D02*
X184463660Y-150150552D01*
X183654136Y-150817219D02*
X183654136Y-150293409D01*
X183654136Y-150293409D02*
X183701755Y-150198171D01*
X183701755Y-150198171D02*
X183796993Y-150150552D01*
X183796993Y-150150552D02*
X183987469Y-150150552D01*
X183987469Y-150150552D02*
X184082707Y-150198171D01*
X183654136Y-150769600D02*
X183749374Y-150817219D01*
X183749374Y-150817219D02*
X183987469Y-150817219D01*
X183987469Y-150817219D02*
X184082707Y-150769600D01*
X184082707Y-150769600D02*
X184130326Y-150674361D01*
X184130326Y-150674361D02*
X184130326Y-150579123D01*
X184130326Y-150579123D02*
X184082707Y-150483885D01*
X184082707Y-150483885D02*
X183987469Y-150436266D01*
X183987469Y-150436266D02*
X183749374Y-150436266D01*
X183749374Y-150436266D02*
X183654136Y-150388647D01*
X182749374Y-150817219D02*
X182749374Y-149817219D01*
X182749374Y-150769600D02*
X182844612Y-150817219D01*
X182844612Y-150817219D02*
X183035088Y-150817219D01*
X183035088Y-150817219D02*
X183130326Y-150769600D01*
X183130326Y-150769600D02*
X183177945Y-150721980D01*
X183177945Y-150721980D02*
X183225564Y-150626742D01*
X183225564Y-150626742D02*
X183225564Y-150341028D01*
X183225564Y-150341028D02*
X183177945Y-150245790D01*
X183177945Y-150245790D02*
X183130326Y-150198171D01*
X183130326Y-150198171D02*
X183035088Y-150150552D01*
X183035088Y-150150552D02*
X182844612Y-150150552D01*
X182844612Y-150150552D02*
X182749374Y-150198171D01*
X182368421Y-150150552D02*
X182177945Y-150817219D01*
X182177945Y-150817219D02*
X181987469Y-150341028D01*
X181987469Y-150341028D02*
X181796993Y-150817219D01*
X181796993Y-150817219D02*
X181606517Y-150150552D01*
X181082707Y-150817219D02*
X181177945Y-150769600D01*
X181177945Y-150769600D02*
X181225564Y-150721980D01*
X181225564Y-150721980D02*
X181273183Y-150626742D01*
X181273183Y-150626742D02*
X181273183Y-150341028D01*
X181273183Y-150341028D02*
X181225564Y-150245790D01*
X181225564Y-150245790D02*
X181177945Y-150198171D01*
X181177945Y-150198171D02*
X181082707Y-150150552D01*
X181082707Y-150150552D02*
X180939850Y-150150552D01*
X180939850Y-150150552D02*
X180844612Y-150198171D01*
X180844612Y-150198171D02*
X180796993Y-150245790D01*
X180796993Y-150245790D02*
X180749374Y-150341028D01*
X180749374Y-150341028D02*
X180749374Y-150626742D01*
X180749374Y-150626742D02*
X180796993Y-150721980D01*
X180796993Y-150721980D02*
X180844612Y-150769600D01*
X180844612Y-150769600D02*
X180939850Y-150817219D01*
X180939850Y-150817219D02*
X181082707Y-150817219D01*
X179368421Y-149817219D02*
X179177945Y-149817219D01*
X179177945Y-149817219D02*
X179082707Y-149864838D01*
X179082707Y-149864838D02*
X178987469Y-149960076D01*
X178987469Y-149960076D02*
X178939850Y-150150552D01*
X178939850Y-150150552D02*
X178939850Y-150483885D01*
X178939850Y-150483885D02*
X178987469Y-150674361D01*
X178987469Y-150674361D02*
X179082707Y-150769600D01*
X179082707Y-150769600D02*
X179177945Y-150817219D01*
X179177945Y-150817219D02*
X179368421Y-150817219D01*
X179368421Y-150817219D02*
X179463659Y-150769600D01*
X179463659Y-150769600D02*
X179558897Y-150674361D01*
X179558897Y-150674361D02*
X179606516Y-150483885D01*
X179606516Y-150483885D02*
X179606516Y-150150552D01*
X179606516Y-150150552D02*
X179558897Y-149960076D01*
X179558897Y-149960076D02*
X179463659Y-149864838D01*
X179463659Y-149864838D02*
X179368421Y-149817219D01*
X178558897Y-150769600D02*
X178463659Y-150817219D01*
X178463659Y-150817219D02*
X178273183Y-150817219D01*
X178273183Y-150817219D02*
X178177945Y-150769600D01*
X178177945Y-150769600D02*
X178130326Y-150674361D01*
X178130326Y-150674361D02*
X178130326Y-150626742D01*
X178130326Y-150626742D02*
X178177945Y-150531504D01*
X178177945Y-150531504D02*
X178273183Y-150483885D01*
X178273183Y-150483885D02*
X178416040Y-150483885D01*
X178416040Y-150483885D02*
X178511278Y-150436266D01*
X178511278Y-150436266D02*
X178558897Y-150341028D01*
X178558897Y-150341028D02*
X178558897Y-150293409D01*
X178558897Y-150293409D02*
X178511278Y-150198171D01*
X178511278Y-150198171D02*
X178416040Y-150150552D01*
X178416040Y-150150552D02*
X178273183Y-150150552D01*
X178273183Y-150150552D02*
X178177945Y-150198171D01*
X177273183Y-150817219D02*
X177273183Y-150293409D01*
X177273183Y-150293409D02*
X177320802Y-150198171D01*
X177320802Y-150198171D02*
X177416040Y-150150552D01*
X177416040Y-150150552D02*
X177606516Y-150150552D01*
X177606516Y-150150552D02*
X177701754Y-150198171D01*
X177273183Y-150769600D02*
X177368421Y-150817219D01*
X177368421Y-150817219D02*
X177606516Y-150817219D01*
X177606516Y-150817219D02*
X177701754Y-150769600D01*
X177701754Y-150769600D02*
X177749373Y-150674361D01*
X177749373Y-150674361D02*
X177749373Y-150579123D01*
X177749373Y-150579123D02*
X177701754Y-150483885D01*
X177701754Y-150483885D02*
X177606516Y-150436266D01*
X177606516Y-150436266D02*
X177368421Y-150436266D01*
X177368421Y-150436266D02*
X177273183Y-150388647D01*
X176939849Y-150150552D02*
X176558897Y-150150552D01*
X176796992Y-150817219D02*
X176796992Y-149960076D01*
X176796992Y-149960076D02*
X176749373Y-149864838D01*
X176749373Y-149864838D02*
X176654135Y-149817219D01*
X176654135Y-149817219D02*
X176558897Y-149817219D01*
X176082706Y-150817219D02*
X176177944Y-150769600D01*
X176177944Y-150769600D02*
X176225563Y-150721980D01*
X176225563Y-150721980D02*
X176273182Y-150626742D01*
X176273182Y-150626742D02*
X176273182Y-150341028D01*
X176273182Y-150341028D02*
X176225563Y-150245790D01*
X176225563Y-150245790D02*
X176177944Y-150198171D01*
X176177944Y-150198171D02*
X176082706Y-150150552D01*
X176082706Y-150150552D02*
X175939849Y-150150552D01*
X175939849Y-150150552D02*
X175844611Y-150198171D01*
X175844611Y-150198171D02*
X175796992Y-150245790D01*
X175796992Y-150245790D02*
X175749373Y-150341028D01*
X175749373Y-150341028D02*
X175749373Y-150626742D01*
X175749373Y-150626742D02*
X175796992Y-150721980D01*
X175796992Y-150721980D02*
X175844611Y-150769600D01*
X175844611Y-150769600D02*
X175939849Y-150817219D01*
X175939849Y-150817219D02*
X176082706Y-150817219D01*
%TO.C,G\u002A\u002A\u002A*%
G36*
X138717537Y-97457747D02*
G01*
X135052817Y-97457747D01*
X131388097Y-97457747D01*
X131745844Y-97100000D01*
X132283166Y-97100000D01*
X135038173Y-97100000D01*
X137793179Y-97100000D01*
X136424597Y-95713733D01*
X135056015Y-94327465D01*
X133669591Y-95713733D01*
X132283166Y-97100000D01*
X131745844Y-97100000D01*
X133220457Y-95625387D01*
X135052817Y-93793027D01*
X136885177Y-95625387D01*
X138359790Y-97100000D01*
X138717537Y-97457747D01*
G37*
G36*
X135722232Y-98531339D02*
G01*
X136766976Y-98535444D01*
X137526056Y-98547794D01*
X138045009Y-98572834D01*
X138369371Y-98615005D01*
X138544679Y-98678750D01*
X138616470Y-98768512D01*
X138630281Y-98888733D01*
X138627583Y-98957336D01*
X138584530Y-99074466D01*
X138447309Y-99154738D01*
X138163206Y-99205037D01*
X137679507Y-99232246D01*
X136943498Y-99243247D01*
X135902464Y-99244924D01*
X134633352Y-99236300D01*
X133374138Y-99202868D01*
X132432571Y-99142180D01*
X131786924Y-99052016D01*
X131415469Y-98930156D01*
X131296479Y-98774381D01*
X131298368Y-98757139D01*
X131383913Y-98676907D01*
X131625918Y-98617252D01*
X132064623Y-98575504D01*
X132740274Y-98548991D01*
X133693112Y-98535042D01*
X134963380Y-98530986D01*
X135722232Y-98531339D01*
G37*
G36*
X127932924Y-94238043D02*
G01*
X129136445Y-94248410D01*
X130026549Y-94282705D01*
X130645420Y-94347819D01*
X131035242Y-94450645D01*
X131238200Y-94598077D01*
X131296479Y-94797007D01*
X131296476Y-94799221D01*
X131255530Y-94975300D01*
X131083498Y-95076049D01*
X130704928Y-95121677D01*
X130044366Y-95132395D01*
X128792253Y-95132395D01*
X128792253Y-96712442D01*
X128789860Y-97029625D01*
X128767403Y-97699917D01*
X128726372Y-98190243D01*
X128673004Y-98411737D01*
X128619474Y-98451531D01*
X128315258Y-98530986D01*
X128210224Y-98463531D01*
X128131338Y-98192199D01*
X128089220Y-97665137D01*
X128076760Y-96831690D01*
X128076760Y-95132395D01*
X126824648Y-95132395D01*
X126490770Y-95131580D01*
X125972110Y-95114184D01*
X125698154Y-95052551D01*
X125590947Y-94918840D01*
X125572535Y-94685212D01*
X125572535Y-94238028D01*
X127875528Y-94238028D01*
X127932924Y-94238043D01*
G37*
G36*
X181237063Y-94596308D02*
G01*
X181386325Y-94632289D01*
X181480839Y-94770628D01*
X181533003Y-95075162D01*
X181555211Y-95609730D01*
X181559859Y-96438169D01*
X181559413Y-96594640D01*
X181530589Y-97547234D01*
X181458426Y-98188072D01*
X181345211Y-98495212D01*
X181221690Y-98553280D01*
X180778795Y-98630816D01*
X180111732Y-98684125D01*
X179303514Y-98713206D01*
X178437153Y-98718061D01*
X177595665Y-98698689D01*
X176862061Y-98655090D01*
X176319356Y-98587264D01*
X176050563Y-98495212D01*
X176032385Y-98473203D01*
X175924762Y-98118180D01*
X175858508Y-97432522D01*
X175835915Y-96438169D01*
X175836019Y-96258174D01*
X175843005Y-95489476D01*
X175869867Y-95002725D01*
X175929000Y-94734083D01*
X176032800Y-94619712D01*
X176193662Y-94595775D01*
X176334717Y-94611365D01*
X176452216Y-94711727D01*
X176517410Y-94965499D01*
X176545430Y-95440771D01*
X176551408Y-96205634D01*
X176551408Y-97815493D01*
X178697887Y-97815493D01*
X180844366Y-97815493D01*
X180844366Y-96205634D01*
X180847830Y-95570886D01*
X180870133Y-95042140D01*
X180926527Y-94748766D01*
X181032143Y-94622674D01*
X181202112Y-94595775D01*
X181237063Y-94596308D01*
G37*
G36*
X161388502Y-94417500D02*
G01*
X161534134Y-94455348D01*
X161626698Y-94597719D01*
X161678089Y-94907910D01*
X161700202Y-95449214D01*
X161704929Y-96284928D01*
X161704867Y-96413609D01*
X161697299Y-97216989D01*
X161667424Y-97746430D01*
X161601491Y-98076027D01*
X161485748Y-98279874D01*
X161306446Y-98432063D01*
X161101438Y-98541320D01*
X160792077Y-98615621D01*
X160328287Y-98646833D01*
X159642730Y-98639160D01*
X158668065Y-98596808D01*
X158607363Y-98593648D01*
X157739543Y-98535105D01*
X156998533Y-98461585D01*
X156461241Y-98382170D01*
X156204577Y-98305940D01*
X156168999Y-98266307D01*
X156063129Y-97925244D01*
X156001167Y-97267309D01*
X155980986Y-96273169D01*
X155981077Y-96107214D01*
X155988012Y-95329403D01*
X156014568Y-94834953D01*
X156072751Y-94560378D01*
X156174566Y-94442189D01*
X156332020Y-94416902D01*
X156466683Y-94433770D01*
X156586143Y-94540364D01*
X156659766Y-94804319D01*
X156703798Y-95292427D01*
X156734485Y-96071479D01*
X156785915Y-97726057D01*
X158842957Y-97726057D01*
X160900000Y-97726057D01*
X160951430Y-96071479D01*
X160974662Y-95439224D01*
X161014294Y-94891772D01*
X161079879Y-94583428D01*
X161187664Y-94447401D01*
X161353895Y-94416902D01*
X161388502Y-94417500D01*
G37*
G36*
X152166818Y-94430077D02*
G01*
X153080877Y-94450014D01*
X153864253Y-94486094D01*
X154444814Y-94538474D01*
X154750428Y-94607311D01*
X154884130Y-94706134D01*
X154989717Y-94900027D01*
X155051106Y-95244049D01*
X155079630Y-95807358D01*
X155086619Y-96659111D01*
X155086457Y-96884718D01*
X155079024Y-97646312D01*
X155051657Y-98128384D01*
X154992248Y-98394286D01*
X154888689Y-98507370D01*
X154728873Y-98530986D01*
X154587818Y-98515396D01*
X154470319Y-98415034D01*
X154405125Y-98161262D01*
X154377104Y-97685990D01*
X154371126Y-96921127D01*
X154371126Y-95311268D01*
X153119014Y-95311268D01*
X151866901Y-95311268D01*
X151866901Y-96921127D01*
X151866879Y-97063149D01*
X151861458Y-97775150D01*
X151833153Y-98209092D01*
X151762844Y-98433817D01*
X151631406Y-98518168D01*
X151419718Y-98530986D01*
X151380268Y-98530908D01*
X151182489Y-98511389D01*
X151061950Y-98409494D01*
X150999526Y-98156380D01*
X150976096Y-97683205D01*
X150972535Y-96921127D01*
X150972535Y-95311268D01*
X149720422Y-95311268D01*
X148468310Y-95311268D01*
X148468310Y-96921127D01*
X148464845Y-97555876D01*
X148442543Y-98084621D01*
X148386149Y-98377995D01*
X148280533Y-98504087D01*
X148110563Y-98530986D01*
X148071727Y-98530312D01*
X147924229Y-98492968D01*
X147830848Y-98352345D01*
X147779325Y-98044834D01*
X147757401Y-97506828D01*
X147752817Y-96674719D01*
X147757167Y-96147836D01*
X147793087Y-95354162D01*
X147869015Y-94858471D01*
X147989407Y-94622099D01*
X148160866Y-94566997D01*
X148646372Y-94508591D01*
X149361852Y-94465538D01*
X150235174Y-94437996D01*
X151194206Y-94426123D01*
X152166818Y-94430077D01*
G37*
G36*
X186115706Y-94652294D02*
G01*
X187091801Y-94672054D01*
X188002555Y-94704383D01*
X188774891Y-94748187D01*
X189335731Y-94802371D01*
X189611996Y-94865841D01*
X189665863Y-94988072D01*
X189729045Y-95410434D01*
X189772110Y-96054806D01*
X189788028Y-96842247D01*
X189787874Y-97061286D01*
X189780506Y-97823895D01*
X189753211Y-98306636D01*
X189693841Y-98572930D01*
X189590247Y-98686197D01*
X189430281Y-98709859D01*
X189289226Y-98694269D01*
X189171727Y-98593908D01*
X189106533Y-98340135D01*
X189078513Y-97864863D01*
X189072535Y-97100000D01*
X189072535Y-95490141D01*
X187820422Y-95490141D01*
X186568310Y-95490141D01*
X186568310Y-97100000D01*
X186568288Y-97242022D01*
X186562866Y-97954023D01*
X186534562Y-98387965D01*
X186464252Y-98612690D01*
X186332815Y-98697041D01*
X186121126Y-98709859D01*
X186081676Y-98709781D01*
X185883898Y-98690263D01*
X185763359Y-98588367D01*
X185700935Y-98335254D01*
X185677504Y-97862079D01*
X185673943Y-97100000D01*
X185673943Y-95490141D01*
X184421831Y-95490141D01*
X183169718Y-95490141D01*
X183169718Y-97100000D01*
X183166254Y-97734749D01*
X183143951Y-98263494D01*
X183087557Y-98556868D01*
X182981941Y-98682960D01*
X182811972Y-98709859D01*
X182768854Y-98709007D01*
X182623301Y-98670117D01*
X182531169Y-98526921D01*
X182480351Y-98216068D01*
X182458739Y-97674206D01*
X182454225Y-96837984D01*
X182454266Y-96733767D01*
X182461400Y-95922949D01*
X182489784Y-95391478D01*
X182552308Y-95068468D01*
X182661866Y-94883031D01*
X182831347Y-94764279D01*
X183019493Y-94720843D01*
X183526166Y-94679379D01*
X184259811Y-94654862D01*
X185147350Y-94646199D01*
X186115706Y-94652294D01*
G37*
G36*
X124670330Y-95560588D02*
G01*
X124678169Y-96361509D01*
X124652534Y-97222868D01*
X124578987Y-97833335D01*
X124463521Y-98137465D01*
X124295794Y-98214309D01*
X123791350Y-98291587D01*
X122957395Y-98337162D01*
X121780422Y-98352113D01*
X121649531Y-98352092D01*
X120704581Y-98348530D01*
X120055596Y-98333244D01*
X119647210Y-98298208D01*
X119424055Y-98235400D01*
X119330765Y-98136794D01*
X119311972Y-97994366D01*
X119323343Y-97873051D01*
X119401482Y-97763140D01*
X119604891Y-97693840D01*
X119991685Y-97655852D01*
X120619978Y-97639878D01*
X121547887Y-97636620D01*
X123783803Y-97636620D01*
X123783803Y-97189437D01*
X123783803Y-96742254D01*
X121583662Y-96742254D01*
X121120558Y-96739657D01*
X120119454Y-96706882D01*
X119469916Y-96636289D01*
X119168873Y-96527606D01*
X119104709Y-96424313D01*
X118996853Y-96011552D01*
X118963427Y-95579578D01*
X119759155Y-95579578D01*
X119762083Y-95649160D01*
X119814731Y-95783184D01*
X119980958Y-95871686D01*
X120321801Y-95927049D01*
X120898296Y-95961659D01*
X121771479Y-95987901D01*
X123783803Y-96038477D01*
X123783803Y-95579578D01*
X123783803Y-95120678D01*
X121771479Y-95171255D01*
X121380494Y-95181602D01*
X120634049Y-95209722D01*
X120159729Y-95251195D01*
X119896497Y-95318405D01*
X119783318Y-95423738D01*
X119759155Y-95579578D01*
X118963427Y-95579578D01*
X118954225Y-95460660D01*
X118971628Y-95030557D01*
X119074582Y-94637776D01*
X119300212Y-94423195D01*
X119305549Y-94420468D01*
X119623461Y-94349522D01*
X120213646Y-94291524D01*
X120993669Y-94252388D01*
X121881097Y-94238028D01*
X122829085Y-94242060D01*
X123611706Y-94279794D01*
X124134911Y-94390863D01*
X124450931Y-94614917D01*
X124611994Y-94991608D01*
X124625227Y-95120678D01*
X124670330Y-95560588D01*
G37*
G36*
X168323239Y-96665831D02*
G01*
X168322434Y-96945645D01*
X168304897Y-97661213D01*
X168255152Y-98113456D01*
X168160992Y-98374546D01*
X168010211Y-98516659D01*
X167984570Y-98528640D01*
X167642577Y-98595755D01*
X167033757Y-98651056D01*
X166235980Y-98689094D01*
X165327112Y-98704420D01*
X162957042Y-98709859D01*
X162957042Y-98262676D01*
X162957042Y-97815493D01*
X165282394Y-97815493D01*
X167607746Y-97815493D01*
X167607746Y-97368310D01*
X167607746Y-96921127D01*
X165318169Y-96921127D01*
X164706347Y-96916898D01*
X163732864Y-96882321D01*
X163104507Y-96812390D01*
X162813943Y-96706479D01*
X162752086Y-96624455D01*
X162623998Y-96192961D01*
X162610467Y-95758451D01*
X163404225Y-95758451D01*
X163410101Y-95850481D01*
X163474025Y-95974596D01*
X163657303Y-96056773D01*
X164019527Y-96108515D01*
X164620291Y-96141325D01*
X165519185Y-96166707D01*
X166377286Y-96185514D01*
X166987956Y-96187361D01*
X167354792Y-96160785D01*
X167536187Y-96095630D01*
X167590534Y-95981740D01*
X167576228Y-95808960D01*
X167551051Y-95675885D01*
X167472820Y-95544583D01*
X167287353Y-95463503D01*
X166932022Y-95420556D01*
X166344203Y-95403652D01*
X165461267Y-95400704D01*
X164958359Y-95401513D01*
X164237473Y-95411631D01*
X163782141Y-95441857D01*
X163531838Y-95502719D01*
X163426041Y-95604742D01*
X163404225Y-95758451D01*
X162610467Y-95758451D01*
X162606585Y-95633803D01*
X162694346Y-95104578D01*
X162881780Y-94762884D01*
X162951881Y-94726463D01*
X163351210Y-94647389D01*
X163990427Y-94595356D01*
X164784404Y-94569611D01*
X165648014Y-94569405D01*
X166496128Y-94593984D01*
X167243620Y-94642598D01*
X167805363Y-94714495D01*
X168096228Y-94808923D01*
X168223241Y-95095178D01*
X168298507Y-95709878D01*
X168305540Y-95981740D01*
X168323239Y-96665831D01*
G37*
G36*
X144193887Y-94411763D02*
G01*
X145091031Y-94438951D01*
X145845327Y-94484584D01*
X146386381Y-94548753D01*
X146643803Y-94631550D01*
X146662788Y-94654729D01*
X146770044Y-95012116D01*
X146835987Y-95701185D01*
X146858450Y-96701033D01*
X146858103Y-97076128D01*
X146849898Y-97778099D01*
X146820588Y-98209376D01*
X146756898Y-98431924D01*
X146645548Y-98507713D01*
X146473261Y-98498709D01*
X146314459Y-98460814D01*
X146192186Y-98348424D01*
X146130392Y-98094985D01*
X146113660Y-97628360D01*
X146126575Y-96876409D01*
X146165078Y-95311268D01*
X144901905Y-95311268D01*
X143638732Y-95311268D01*
X143638732Y-96921127D01*
X143638710Y-97063149D01*
X143633289Y-97775150D01*
X143604984Y-98209092D01*
X143534675Y-98433817D01*
X143403237Y-98518168D01*
X143191549Y-98530986D01*
X143163439Y-98530952D01*
X142960345Y-98513225D01*
X142836476Y-98415318D01*
X142772247Y-98167841D01*
X142748072Y-97701402D01*
X142744366Y-96946609D01*
X142744366Y-95362231D01*
X141652721Y-95248132D01*
X141143125Y-95207405D01*
X140652177Y-95198122D01*
X140400608Y-95233207D01*
X140366126Y-95292234D01*
X140301538Y-95640558D01*
X140256841Y-96219996D01*
X140240141Y-96944124D01*
X140240135Y-97001464D01*
X140235310Y-97743363D01*
X140209787Y-98197846D01*
X140146431Y-98431104D01*
X140028106Y-98509328D01*
X139837676Y-98498709D01*
X139769732Y-98488127D01*
X139611341Y-98431981D01*
X139517345Y-98287704D01*
X139475346Y-97987970D01*
X139472944Y-97465450D01*
X139497741Y-96652817D01*
X139521794Y-96155833D01*
X139582038Y-95441105D01*
X139659465Y-94906371D01*
X139743234Y-94640493D01*
X139753152Y-94630872D01*
X140029156Y-94549306D01*
X140584663Y-94485637D01*
X141349282Y-94439957D01*
X142252621Y-94412357D01*
X143224286Y-94402929D01*
X144193887Y-94411763D01*
G37*
G36*
X172935412Y-94603678D02*
G01*
X173861254Y-94640823D01*
X174453915Y-94709377D01*
X174726901Y-94810423D01*
X174853697Y-95079566D01*
X174927168Y-95568168D01*
X174928634Y-96120970D01*
X174858696Y-96599642D01*
X174717957Y-96865852D01*
X174711615Y-96869500D01*
X174435068Y-96924415D01*
X173882659Y-96969253D01*
X173131436Y-96999480D01*
X172258450Y-97010564D01*
X171351466Y-97012948D01*
X170715117Y-97027189D01*
X170318249Y-97063801D01*
X170100945Y-97133302D01*
X170003292Y-97246205D01*
X169965376Y-97413028D01*
X169954887Y-97494773D01*
X169965413Y-97629457D01*
X170064653Y-97719909D01*
X170306413Y-97774934D01*
X170744501Y-97803337D01*
X171432722Y-97813922D01*
X172424883Y-97815493D01*
X174941549Y-97815493D01*
X174941549Y-98262676D01*
X174941549Y-98709859D01*
X172360664Y-98709859D01*
X172175742Y-98709718D01*
X171168386Y-98700687D01*
X170453444Y-98673621D01*
X169974475Y-98622976D01*
X169675038Y-98543207D01*
X169498692Y-98428773D01*
X169431251Y-98341816D01*
X169275827Y-97897994D01*
X169220757Y-97326122D01*
X169271184Y-96781713D01*
X169432253Y-96420282D01*
X169538706Y-96361769D01*
X169999074Y-96274581D01*
X170799861Y-96222759D01*
X171948919Y-96205634D01*
X172130588Y-96205619D01*
X173017856Y-96202641D01*
X173612931Y-96187441D01*
X173971935Y-96149955D01*
X174150995Y-96080123D01*
X174206234Y-95967882D01*
X174193779Y-95803169D01*
X174155327Y-95638409D01*
X174055277Y-95523665D01*
X173834581Y-95448988D01*
X173433976Y-95402906D01*
X172794199Y-95373948D01*
X171855986Y-95350642D01*
X171103521Y-95332229D01*
X170400364Y-95304045D01*
X169953349Y-95261674D01*
X169705097Y-95194990D01*
X169598225Y-95093866D01*
X169575352Y-94948177D01*
X169575427Y-94934958D01*
X169599503Y-94798418D01*
X169704759Y-94704410D01*
X169946506Y-94645038D01*
X170380056Y-94612405D01*
X171060718Y-94598616D01*
X172043803Y-94595775D01*
X172935412Y-94603678D01*
G37*
%TD*%
%LPC*%
D11*
%TO.C,J2*%
X130210001Y-112740000D03*
D12*
X132750001Y-112740000D03*
X135290001Y-112740000D03*
X137830000Y-112740000D03*
X140370001Y-112740000D03*
X142910001Y-112740000D03*
X145450001Y-112740000D03*
X147990001Y-112740000D03*
%TD*%
D11*
%TO.C,J1*%
X161600000Y-60500000D03*
D12*
X161600000Y-63040000D03*
X161600000Y-65580000D03*
X161600000Y-68120000D03*
X161600000Y-70660000D03*
X161600000Y-73200000D03*
X161600000Y-75740000D03*
X161600000Y-78280000D03*
X161600000Y-80820000D03*
X161600000Y-83360000D03*
X161600000Y-85900000D03*
X161600000Y-88440000D03*
X161600000Y-90980000D03*
X161600000Y-93520000D03*
X161600000Y-96060000D03*
X161600000Y-98600000D03*
X161600000Y-101140000D03*
X161600000Y-103680000D03*
X161600000Y-106220000D03*
X161600000Y-108760000D03*
D11*
X189830000Y-60500000D03*
D12*
X189830000Y-63040000D03*
X189830000Y-65580000D03*
X189830000Y-68120000D03*
X189830000Y-70660000D03*
X189830000Y-73200000D03*
X189830000Y-75740000D03*
X189830000Y-78280000D03*
X189830000Y-80820000D03*
X189830000Y-83360000D03*
X189830000Y-85900000D03*
X189830000Y-88440000D03*
%TD*%
D11*
%TO.C,J3*%
X130400000Y-120434000D03*
D12*
X132940000Y-120434000D03*
X135480000Y-120434000D03*
X138020000Y-120434000D03*
X140560000Y-120434000D03*
X143100000Y-120434000D03*
%TD*%
%LPD*%
M02*
