M48
; DRILL file {KiCad 7.0.5} date Fri Mar 29 22:29:21 2024
; FORMAT={-:-/ absolute / metric / decimal}
; #@! TF.CreationDate,2024-03-29T22:29:21-04:00
; #@! TF.GenerationSoftware,Kicad,Pcbnew,7.0.5
; #@! TF.FileFunction,Plated,1,2,PTH
FMAT,2
METRIC
; #@! TA.AperFunction,Plated,PTH,ViaDrill
T1C0.400
; #@! TA.AperFunction,Plated,PTH,ComponentDrill
T2C1.000
%
G90
G05
T1
X141.3Y-117.45
X147.05Y-119.45
X148.55Y-117.5
X151.9Y-105.8
X165.45Y-102.95
X166.55Y-99.15
X166.75Y-101.35
X173.7Y-83.75
X175.7Y-122.85
T2
X130.21Y-112.74
X130.4Y-120.434
X132.75Y-112.74
X132.94Y-120.434
X135.29Y-112.74
X135.48Y-120.434
X137.83Y-112.74
X138.02Y-120.434
X140.37Y-112.74
X140.56Y-120.434
X142.91Y-112.74
X143.1Y-120.434
X145.45Y-112.74
X147.99Y-112.74
X161.6Y-60.5
X161.6Y-63.04
X161.6Y-65.58
X161.6Y-68.12
X161.6Y-70.66
X161.6Y-73.2
X161.6Y-75.74
X161.6Y-78.28
X161.6Y-80.82
X161.6Y-83.36
X161.6Y-85.9
X161.6Y-88.44
X161.6Y-90.98
X161.6Y-93.52
X161.6Y-96.06
X161.6Y-98.6
X161.6Y-101.14
X161.6Y-103.68
X161.6Y-106.22
X161.6Y-108.76
X189.83Y-60.5
X189.83Y-63.04
X189.83Y-65.58
X189.83Y-68.12
X189.83Y-70.66
X189.83Y-73.2
X189.83Y-75.74
X189.83Y-78.28
X189.83Y-80.82
X189.83Y-83.36
X189.83Y-85.9
X189.83Y-88.44
T0
M30
