%TF.GenerationSoftware,KiCad,Pcbnew,7.0.5*%
%TF.CreationDate,2024-02-24T19:05:55-05:00*%
%TF.ProjectId,UWB_PCB,5557425f-5043-4422-9e6b-696361645f70,rev?*%
%TF.SameCoordinates,Original*%
%TF.FileFunction,Copper,L2,Bot*%
%TF.FilePolarity,Positive*%
%FSLAX46Y46*%
G04 Gerber Fmt 4.6, Leading zero omitted, Abs format (unit mm)*
G04 Created by KiCad (PCBNEW 7.0.5) date 2024-02-24 19:05:55*
%MOMM*%
%LPD*%
G01*
G04 APERTURE LIST*
%TA.AperFunction,ComponentPad*%
%ADD10R,1.700000X1.700000*%
%TD*%
%TA.AperFunction,ComponentPad*%
%ADD11O,1.700000X1.700000*%
%TD*%
%TA.AperFunction,ViaPad*%
%ADD12C,0.800000*%
%TD*%
%TA.AperFunction,Conductor*%
%ADD13C,0.250000*%
%TD*%
G04 APERTURE END LIST*
D10*
%TO.P,J1,1,Pin_1*%
%TO.N,/5V*%
X161600000Y-60500000D03*
D11*
%TO.P,J1,2,Pin_2*%
%TO.N,/GND1*%
X161600000Y-63040000D03*
%TO.P,J1,3,Pin_3*%
%TO.N,/IO3*%
X161600000Y-65580000D03*
%TO.P,J1,4,Pin_4*%
%TO.N,/IO1*%
X161600000Y-68120000D03*
%TO.P,J1,5,Pin_5*%
%TO.N,/IO0*%
X161600000Y-70660000D03*
%TO.P,J1,6,Pin_6*%
%TO.N,/IO4*%
X161600000Y-73200000D03*
%TO.P,J1,7,Pin_7*%
%TO.N,/IO5*%
X161600000Y-75740000D03*
%TO.P,J1,8,Pin_8*%
%TO.N,/IO16*%
X161600000Y-78280000D03*
%TO.P,J1,9,Pin_9*%
%TO.N,/IO17*%
X161600000Y-80820000D03*
%TO.P,J1,10,Pin_10*%
%TO.N,/IO21*%
X161600000Y-83360000D03*
%TO.P,J1,11,Pin_11*%
%TO.N,/IO22*%
X161600000Y-85900000D03*
%TO.P,J1,12,Pin_12*%
%TO.N,/IO23*%
X161600000Y-88440000D03*
%TO.P,J1,13,Pin_13*%
%TO.N,/3.3V*%
X161600000Y-90980000D03*
%TO.P,J1,14,Pin_14*%
%TO.N,/GND2*%
X161600000Y-93520000D03*
%TO.P,J1,15,Pin_15*%
%TO.N,/RST*%
X161600000Y-96060000D03*
%TO.P,J1,16,Pin_16*%
%TO.N,/GND3*%
X161600000Y-98600000D03*
%TO.P,J1,17,Pin_17*%
%TO.N,/IO2*%
X161600000Y-101140000D03*
%TO.P,J1,18,Pin_18*%
%TO.N,/IO12*%
X161600000Y-103680000D03*
%TO.P,J1,19,Pin_19*%
%TO.N,/IO13*%
X161600000Y-106220000D03*
%TO.P,J1,20,Pin_20*%
%TO.N,/IO14*%
X161600000Y-108760000D03*
D10*
%TO.P,J1,21,Pin_21*%
%TO.N,/IO15*%
X188830000Y-60500000D03*
D11*
%TO.P,J1,22,Pin_22*%
%TO.N,/IO18*%
X188830000Y-63040000D03*
%TO.P,J1,23,Pin_23*%
%TO.N,/IO19*%
X188830000Y-65580000D03*
%TO.P,J1,24,Pin_24*%
%TO.N,/IO25*%
X188830000Y-68120000D03*
%TO.P,J1,25,Pin_25*%
%TO.N,/IO26*%
X188830000Y-70660000D03*
%TO.P,J1,26,Pin_26*%
%TO.N,/IO27*%
X188830000Y-73200000D03*
%TO.P,J1,27,Pin_27*%
%TO.N,/IO32*%
X188830000Y-75740000D03*
%TO.P,J1,28,Pin_28*%
%TO.N,/IO33*%
X188830000Y-78280000D03*
%TO.P,J1,29,Pin_29*%
%TO.N,/IO34*%
X188830000Y-80820000D03*
%TO.P,J1,30,Pin_30*%
%TO.N,/IO35*%
X188830000Y-83360000D03*
%TO.P,J1,31,Pin_31*%
%TO.N,/IO36*%
X188830000Y-85900000D03*
%TO.P,J1,32,Pin_32*%
%TO.N,/IO39*%
X188830000Y-88440000D03*
%TD*%
D10*
%TO.P,J2,1,Pin_1*%
%TO.N,/IO5*%
X130210001Y-112740000D03*
D11*
%TO.P,J2,2,Pin_2*%
%TO.N,/IO18*%
X132750001Y-112740000D03*
%TO.P,J2,3,Pin_3*%
%TO.N,/IO23*%
X135290001Y-112740000D03*
%TO.P,J2,4,Pin_4*%
%TO.N,/IO19*%
X137830000Y-112740000D03*
%TO.P,J2,5,Pin_5*%
%TO.N,unconnected-(J2-Pin_5-Pad5)*%
X140370001Y-112740000D03*
%TO.P,J2,6,Pin_6*%
%TO.N,/GND2*%
X142910001Y-112740000D03*
%TO.P,J2,7,Pin_7*%
%TO.N,/RST*%
X145450001Y-112740000D03*
%TO.P,J2,8,Pin_8*%
%TO.N,/3.3V*%
X147990001Y-112740000D03*
%TD*%
D12*
%TO.N,/3.3V*%
X148650000Y-109850000D03*
%TO.N,/RST*%
X166500000Y-93950000D03*
%TO.N,/IO19*%
X154650000Y-106400000D03*
X170000000Y-108450000D03*
%TO.N,/IO18*%
X155050000Y-103800000D03*
X167750000Y-106650000D03*
%TO.N,/RST*%
X144900000Y-110100000D03*
%TO.N,/GND2*%
X142450000Y-110150000D03*
%TO.N,/IO23*%
X135750000Y-109900000D03*
%TO.N,/IO5*%
X130850000Y-109700000D03*
X164550000Y-75000000D03*
%TO.N,/GND2*%
X166000000Y-91150000D03*
%TO.N,/3.3V*%
X164750000Y-90100000D03*
%TO.N,/IO23*%
X164500000Y-87550000D03*
%TD*%
D13*
%TO.N,/RST*%
X161113299Y-99965000D02*
X160278299Y-100800000D01*
X160278299Y-100800000D02*
X154200000Y-100800000D01*
X154200000Y-100800000D02*
X144900000Y-110100000D01*
X162285000Y-99965000D02*
X161113299Y-99965000D01*
X166500000Y-95750000D02*
X162285000Y-99965000D01*
X166500000Y-93950000D02*
X166500000Y-95750000D01*
%TO.N,/IO18*%
X166100000Y-105000000D02*
X167750000Y-106650000D01*
X156250000Y-105000000D02*
X166100000Y-105000000D01*
X155050000Y-103800000D02*
X156250000Y-105000000D01*
%TO.N,/IO19*%
X155750000Y-107500000D02*
X154650000Y-106400000D01*
X169050000Y-107500000D02*
X155750000Y-107500000D01*
X170000000Y-108450000D02*
X169050000Y-107500000D01*
%TO.N,/3.3V*%
X165975305Y-90100000D02*
X164750000Y-90100000D01*
X174650000Y-98774695D02*
X165975305Y-90100000D01*
X174650000Y-104825305D02*
X174650000Y-98774695D01*
X148900000Y-110100000D02*
X169375305Y-110100000D01*
X169375305Y-110100000D02*
X174650000Y-104825305D01*
X148650000Y-109850000D02*
X148900000Y-110100000D01*
%TO.N,/GND2*%
X166250000Y-91400000D02*
X166000000Y-91150000D01*
X163315000Y-94885000D02*
X166250000Y-91950000D01*
X161113299Y-94885000D02*
X163315000Y-94885000D01*
X159800000Y-96200000D02*
X160000000Y-96000000D01*
X160000000Y-96000000D02*
X160000000Y-95998299D01*
X156400000Y-96200000D02*
X159800000Y-96200000D01*
X160000000Y-95998299D02*
X161113299Y-94885000D01*
X166250000Y-91950000D02*
X166250000Y-91400000D01*
X142450000Y-110150000D02*
X156400000Y-96200000D01*
%TO.N,/IO23*%
X149900000Y-95750000D02*
X135750000Y-109900000D01*
X159100000Y-95750000D02*
X149900000Y-95750000D01*
X160425000Y-94425000D02*
X159100000Y-95750000D01*
X160425000Y-90493299D02*
X160425000Y-94425000D01*
X164425000Y-89375000D02*
X163995000Y-89805000D01*
X163995000Y-89805000D02*
X161113299Y-89805000D01*
X165825000Y-89375000D02*
X164425000Y-89375000D01*
X161113299Y-89805000D02*
X160425000Y-90493299D01*
X166250000Y-88250000D02*
X166250000Y-88950000D01*
X166250000Y-88950000D02*
X165825000Y-89375000D01*
X165550000Y-87550000D02*
X166250000Y-88250000D01*
X164500000Y-87550000D02*
X165550000Y-87550000D01*
%TO.N,/IO5*%
X160905000Y-79645000D02*
X130850000Y-109700000D01*
X162086701Y-79645000D02*
X160905000Y-79645000D01*
X165300000Y-75750000D02*
X165300000Y-76431701D01*
X165300000Y-76431701D02*
X162086701Y-79645000D01*
X164550000Y-75000000D02*
X165300000Y-75750000D01*
%TD*%
M02*
