%TF.GenerationSoftware,KiCad,Pcbnew,7.0.5*%
%TF.CreationDate,2024-03-29T22:25:32-04:00*%
%TF.ProjectId,UWB_PCB,5557425f-5043-4422-9e6b-696361645f70,rev?*%
%TF.SameCoordinates,Original*%
%TF.FileFunction,Copper,L1,Top*%
%TF.FilePolarity,Positive*%
%FSLAX46Y46*%
G04 Gerber Fmt 4.6, Leading zero omitted, Abs format (unit mm)*
G04 Created by KiCad (PCBNEW 7.0.5) date 2024-03-29 22:25:32*
%MOMM*%
%LPD*%
G01*
G04 APERTURE LIST*
G04 Aperture macros list*
%AMRoundRect*
0 Rectangle with rounded corners*
0 $1 Rounding radius*
0 $2 $3 $4 $5 $6 $7 $8 $9 X,Y pos of 4 corners*
0 Add a 4 corners polygon primitive as box body*
4,1,4,$2,$3,$4,$5,$6,$7,$8,$9,$2,$3,0*
0 Add four circle primitives for the rounded corners*
1,1,$1+$1,$2,$3*
1,1,$1+$1,$4,$5*
1,1,$1+$1,$6,$7*
1,1,$1+$1,$8,$9*
0 Add four rect primitives between the rounded corners*
20,1,$1+$1,$2,$3,$4,$5,0*
20,1,$1+$1,$4,$5,$6,$7,0*
20,1,$1+$1,$6,$7,$8,$9,0*
20,1,$1+$1,$8,$9,$2,$3,0*%
G04 Aperture macros list end*
%TA.AperFunction,SMDPad,CuDef*%
%ADD10RoundRect,0.250000X0.312500X0.625000X-0.312500X0.625000X-0.312500X-0.625000X0.312500X-0.625000X0*%
%TD*%
%TA.AperFunction,ComponentPad*%
%ADD11R,1.700000X1.700000*%
%TD*%
%TA.AperFunction,ComponentPad*%
%ADD12O,1.700000X1.700000*%
%TD*%
%TA.AperFunction,ViaPad*%
%ADD13C,0.800000*%
%TD*%
%TA.AperFunction,Conductor*%
%ADD14C,0.250000*%
%TD*%
%TA.AperFunction,Conductor*%
%ADD15C,0.200000*%
%TD*%
G04 APERTURE END LIST*
D10*
%TO.P,R1,1*%
%TO.N,/IO35*%
X158762500Y-119650000D03*
%TO.P,R1,2*%
%TO.N,/BATT+*%
X155837500Y-119650000D03*
%TD*%
%TO.P,R2,1*%
%TO.N,/IO35*%
X158762500Y-124500000D03*
%TO.P,R2,2*%
%TO.N,/BATT-*%
X155837500Y-124500000D03*
%TD*%
D11*
%TO.P,J2,1,Pin_1*%
%TO.N,/IO5*%
X130210001Y-112740000D03*
D12*
%TO.P,J2,2,Pin_2*%
%TO.N,/IO18*%
X132750001Y-112740000D03*
%TO.P,J2,3,Pin_3*%
%TO.N,/IO23*%
X135290001Y-112740000D03*
%TO.P,J2,4,Pin_4*%
%TO.N,/IO19*%
X137830000Y-112740000D03*
%TO.P,J2,5,Pin_5*%
%TO.N,unconnected-(J2-Pin_5-Pad5)*%
X140370001Y-112740000D03*
%TO.P,J2,6,Pin_6*%
%TO.N,/GND2*%
X142910001Y-112740000D03*
%TO.P,J2,7,Pin_7*%
%TO.N,/IO17*%
X145450001Y-112740000D03*
%TO.P,J2,8,Pin_8*%
%TO.N,/IO16*%
X147990001Y-112740000D03*
%TD*%
D11*
%TO.P,J1,1,Pin_1*%
%TO.N,/3.3V*%
X161600000Y-60500000D03*
D12*
%TO.P,J1,2,Pin_2*%
%TO.N,/GND1*%
X161600000Y-63040000D03*
%TO.P,J1,3,Pin_3*%
%TO.N,/RST*%
X161600000Y-65580000D03*
%TO.P,J1,4,Pin_4*%
%TO.N,/GND2*%
X161600000Y-68120000D03*
%TO.P,J1,5,Pin_5*%
%TO.N,/IO2*%
X161600000Y-70660000D03*
%TO.P,J1,6,Pin_6*%
%TO.N,/IO12*%
X161600000Y-73200000D03*
%TO.P,J1,7,Pin_7*%
%TO.N,/IO13*%
X161600000Y-75740000D03*
%TO.P,J1,8,Pin_8*%
%TO.N,/IO14*%
X161600000Y-78280000D03*
%TO.P,J1,9,Pin_9*%
%TO.N,/IO15*%
X161600000Y-80820000D03*
%TO.P,J1,10,Pin_10*%
%TO.N,/IO18*%
X161600000Y-83360000D03*
%TO.P,J1,11,Pin_11*%
%TO.N,/IO19*%
X161600000Y-85900000D03*
%TO.P,J1,12,Pin_12*%
%TO.N,/IO25*%
X161600000Y-88440000D03*
%TO.P,J1,13,Pin_13*%
%TO.N,/IO26*%
X161600000Y-90980000D03*
%TO.P,J1,14,Pin_14*%
%TO.N,/IO27*%
X161600000Y-93520000D03*
%TO.P,J1,15,Pin_15*%
%TO.N,/IO32*%
X161600000Y-96060000D03*
%TO.P,J1,16,Pin_16*%
%TO.N,/IO33*%
X161600000Y-98600000D03*
%TO.P,J1,17,Pin_17*%
%TO.N,/IO34*%
X161600000Y-101140000D03*
%TO.P,J1,18,Pin_18*%
%TO.N,/IO35*%
X161600000Y-103680000D03*
%TO.P,J1,19,Pin_19*%
%TO.N,/IO36*%
X161600000Y-106220000D03*
%TO.P,J1,20,Pin_20*%
%TO.N,/IO39*%
X161600000Y-108760000D03*
D11*
%TO.P,J1,21,Pin_21*%
%TO.N,/5V*%
X189830000Y-60500000D03*
D12*
%TO.P,J1,22,Pin_22*%
%TO.N,/GND3*%
X189830000Y-63040000D03*
%TO.P,J1,23,Pin_23*%
%TO.N,/IO3*%
X189830000Y-65580000D03*
%TO.P,J1,24,Pin_24*%
%TO.N,/IO1*%
X189830000Y-68120000D03*
%TO.P,J1,25,Pin_25*%
%TO.N,/IO0*%
X189830000Y-70660000D03*
%TO.P,J1,26,Pin_26*%
%TO.N,/IO4*%
X189830000Y-73200000D03*
%TO.P,J1,27,Pin_27*%
%TO.N,/IO5*%
X189830000Y-75740000D03*
%TO.P,J1,28,Pin_28*%
%TO.N,/IO16*%
X189830000Y-78280000D03*
%TO.P,J1,29,Pin_29*%
%TO.N,/IO17*%
X189830000Y-80820000D03*
%TO.P,J1,30,Pin_30*%
%TO.N,/IO21*%
X189830000Y-83360000D03*
%TO.P,J1,31,Pin_31*%
%TO.N,/IO22*%
X189830000Y-85900000D03*
%TO.P,J1,32,Pin_32*%
%TO.N,/IO23*%
X189830000Y-88440000D03*
%TD*%
D11*
%TO.P,J3,1,Pin_1*%
%TO.N,/BATT-*%
X130400000Y-120434000D03*
D12*
%TO.P,J3,2,Pin_2*%
%TO.N,/BATT+*%
X132940000Y-120434000D03*
%TO.P,J3,3,Pin_3*%
%TO.N,/IO25*%
X135480000Y-120434000D03*
%TO.P,J3,4,Pin_4*%
%TO.N,/IO26*%
X138020000Y-120434000D03*
%TO.P,J3,5,Pin_5*%
%TO.N,/GND1*%
X140560000Y-120434000D03*
%TO.P,J3,6,Pin_6*%
%TO.N,/3.3V*%
X143100000Y-120434000D03*
%TD*%
D13*
%TO.N,/IO19*%
X151900000Y-105800000D03*
X165450000Y-102950000D03*
%TO.N,/IO18*%
X166750000Y-101350000D03*
%TO.N,/IO16*%
X166550000Y-99150000D03*
X173700000Y-83750000D03*
%TO.N,/IO5*%
X175700000Y-122850000D03*
%TO.N,/BATT-*%
X147050000Y-119450000D03*
%TO.N,/BATT+*%
X141300000Y-117450000D03*
X148550000Y-117500000D03*
%TD*%
D14*
%TO.N,/IO35*%
X158762500Y-106517500D02*
X158762500Y-119650000D01*
X161600000Y-103680000D02*
X158762500Y-106517500D01*
X159850000Y-123412500D02*
X159850000Y-120737500D01*
X159850000Y-120737500D02*
X158762500Y-119650000D01*
X158762500Y-124500000D02*
X159850000Y-123412500D01*
%TO.N,/IO19*%
X165450000Y-102950000D02*
X165450000Y-102900000D01*
X144770000Y-105800000D02*
X151900000Y-105800000D01*
X163800000Y-101300000D02*
X165450000Y-102950000D01*
X137830000Y-112740000D02*
X144770000Y-105800000D01*
X161600000Y-85900000D02*
X163800000Y-88100000D01*
X163800000Y-88100000D02*
X163800000Y-101300000D01*
%TO.N,/IO18*%
X166750000Y-101350000D02*
X166750000Y-101300000D01*
X161600000Y-83360000D02*
X165350000Y-87110000D01*
X165350000Y-87110000D02*
X165350000Y-99950000D01*
X165350000Y-99950000D02*
X166750000Y-101350000D01*
%TO.N,/GND1*%
X141735000Y-119259000D02*
X143141000Y-119259000D01*
X160425000Y-64215000D02*
X161600000Y-63040000D01*
X143141000Y-119259000D02*
X160425000Y-101975000D01*
X160425000Y-101975000D02*
X160425000Y-64215000D01*
X140560000Y-120434000D02*
X141735000Y-119259000D01*
%TO.N,/3.3V*%
X166700000Y-128750000D02*
X176450000Y-119000000D01*
X161600000Y-60526778D02*
X161600000Y-60500000D01*
X145084000Y-120434000D02*
X153400000Y-128750000D01*
X143100000Y-120434000D02*
X145084000Y-120434000D01*
X176450000Y-75376778D02*
X161600000Y-60526778D01*
X153400000Y-128750000D02*
X166700000Y-128750000D01*
X176450000Y-119000000D02*
X176450000Y-75376778D01*
%TO.N,/IO23*%
X167436396Y-129400000D02*
X177250000Y-119586396D01*
X135290001Y-112740000D02*
X128350000Y-119680001D01*
X177250000Y-89800000D02*
X180450000Y-86600000D01*
X180450000Y-86600000D02*
X187990000Y-86600000D01*
X187990000Y-86600000D02*
X189830000Y-88440000D01*
X134900000Y-129400000D02*
X167436396Y-129400000D01*
X177250000Y-119586396D02*
X177250000Y-89800000D01*
X128350000Y-119680001D02*
X128350000Y-122850000D01*
X128350000Y-122850000D02*
X134900000Y-129400000D01*
%TO.N,/IO16*%
X166550000Y-99150000D02*
X170900000Y-99150000D01*
X173700000Y-83750000D02*
X173650000Y-83800000D01*
X170900000Y-99150000D02*
X172450000Y-97600000D01*
X172450000Y-97600000D02*
X172450000Y-85000000D01*
X172450000Y-85000000D02*
X173700000Y-83750000D01*
%TO.N,/IO5*%
X175700000Y-122900000D02*
X175700000Y-122850000D01*
X127900000Y-115050001D02*
X127900000Y-123036396D01*
X134963604Y-130100000D02*
X168500000Y-130100000D01*
X168500000Y-130100000D02*
X175700000Y-122900000D01*
X130210001Y-112740000D02*
X127900000Y-115050001D01*
X127900000Y-123036396D02*
X134963604Y-130100000D01*
X175750000Y-122850000D02*
X175750000Y-122850000D01*
X175700000Y-122850000D02*
X175750000Y-122850000D01*
D15*
%TO.N,/BATT-*%
X147050000Y-119450000D02*
X147000000Y-119400000D01*
X155837500Y-124500000D02*
X152100000Y-124500000D01*
X152100000Y-124500000D02*
X147050000Y-119450000D01*
%TO.N,/BATT+*%
X148550000Y-117550000D02*
X148550000Y-117500000D01*
X141300000Y-117450000D02*
X135924000Y-117450000D01*
X148500000Y-117500000D02*
X148500000Y-117500000D01*
X148550000Y-117500000D02*
X148500000Y-117500000D01*
X135924000Y-117450000D02*
X132940000Y-120434000D01*
X155837500Y-119650000D02*
X150650000Y-119650000D01*
X150650000Y-119650000D02*
X148550000Y-117550000D01*
%TD*%
M02*
