%TF.GenerationSoftware,KiCad,Pcbnew,7.0.5*%
%TF.CreationDate,2024-02-24T19:05:55-05:00*%
%TF.ProjectId,UWB_PCB,5557425f-5043-4422-9e6b-696361645f70,rev?*%
%TF.SameCoordinates,Original*%
%TF.FileFunction,Copper,L1,Top*%
%TF.FilePolarity,Positive*%
%FSLAX46Y46*%
G04 Gerber Fmt 4.6, Leading zero omitted, Abs format (unit mm)*
G04 Created by KiCad (PCBNEW 7.0.5) date 2024-02-24 19:05:55*
%MOMM*%
%LPD*%
G01*
G04 APERTURE LIST*
G04 Aperture macros list*
%AMRoundRect*
0 Rectangle with rounded corners*
0 $1 Rounding radius*
0 $2 $3 $4 $5 $6 $7 $8 $9 X,Y pos of 4 corners*
0 Add a 4 corners polygon primitive as box body*
4,1,4,$2,$3,$4,$5,$6,$7,$8,$9,$2,$3,0*
0 Add four circle primitives for the rounded corners*
1,1,$1+$1,$2,$3*
1,1,$1+$1,$4,$5*
1,1,$1+$1,$6,$7*
1,1,$1+$1,$8,$9*
0 Add four rect primitives between the rounded corners*
20,1,$1+$1,$2,$3,$4,$5,0*
20,1,$1+$1,$4,$5,$6,$7,0*
20,1,$1+$1,$6,$7,$8,$9,0*
20,1,$1+$1,$8,$9,$2,$3,0*%
G04 Aperture macros list end*
%TA.AperFunction,ComponentPad*%
%ADD10R,1.700000X1.700000*%
%TD*%
%TA.AperFunction,ComponentPad*%
%ADD11O,1.700000X1.700000*%
%TD*%
%TA.AperFunction,SMDPad,CuDef*%
%ADD12RoundRect,0.381000X0.381000X-0.762000X0.381000X0.762000X-0.381000X0.762000X-0.381000X-0.762000X0*%
%TD*%
%TA.AperFunction,ViaPad*%
%ADD13C,0.800000*%
%TD*%
%TA.AperFunction,Conductor*%
%ADD14C,0.250000*%
%TD*%
G04 APERTURE END LIST*
D10*
%TO.P,J1,1,Pin_1*%
%TO.N,/5V*%
X161600000Y-60500000D03*
D11*
%TO.P,J1,2,Pin_2*%
%TO.N,/GND1*%
X161600000Y-63040000D03*
%TO.P,J1,3,Pin_3*%
%TO.N,/IO3*%
X161600000Y-65580000D03*
%TO.P,J1,4,Pin_4*%
%TO.N,/IO1*%
X161600000Y-68120000D03*
%TO.P,J1,5,Pin_5*%
%TO.N,/IO0*%
X161600000Y-70660000D03*
%TO.P,J1,6,Pin_6*%
%TO.N,/IO4*%
X161600000Y-73200000D03*
%TO.P,J1,7,Pin_7*%
%TO.N,/IO5*%
X161600000Y-75740000D03*
%TO.P,J1,8,Pin_8*%
%TO.N,/IO16*%
X161600000Y-78280000D03*
%TO.P,J1,9,Pin_9*%
%TO.N,/IO17*%
X161600000Y-80820000D03*
%TO.P,J1,10,Pin_10*%
%TO.N,/IO21*%
X161600000Y-83360000D03*
%TO.P,J1,11,Pin_11*%
%TO.N,/IO22*%
X161600000Y-85900000D03*
%TO.P,J1,12,Pin_12*%
%TO.N,/IO23*%
X161600000Y-88440000D03*
%TO.P,J1,13,Pin_13*%
%TO.N,/3.3V*%
X161600000Y-90980000D03*
%TO.P,J1,14,Pin_14*%
%TO.N,/GND2*%
X161600000Y-93520000D03*
%TO.P,J1,15,Pin_15*%
%TO.N,/RST*%
X161600000Y-96060000D03*
%TO.P,J1,16,Pin_16*%
%TO.N,/GND3*%
X161600000Y-98600000D03*
%TO.P,J1,17,Pin_17*%
%TO.N,/IO2*%
X161600000Y-101140000D03*
%TO.P,J1,18,Pin_18*%
%TO.N,/IO12*%
X161600000Y-103680000D03*
%TO.P,J1,19,Pin_19*%
%TO.N,/IO13*%
X161600000Y-106220000D03*
%TO.P,J1,20,Pin_20*%
%TO.N,/IO14*%
X161600000Y-108760000D03*
D10*
%TO.P,J1,21,Pin_21*%
%TO.N,/IO15*%
X188830000Y-60500000D03*
D11*
%TO.P,J1,22,Pin_22*%
%TO.N,/IO18*%
X188830000Y-63040000D03*
%TO.P,J1,23,Pin_23*%
%TO.N,/IO19*%
X188830000Y-65580000D03*
%TO.P,J1,24,Pin_24*%
%TO.N,/IO25*%
X188830000Y-68120000D03*
%TO.P,J1,25,Pin_25*%
%TO.N,/IO26*%
X188830000Y-70660000D03*
%TO.P,J1,26,Pin_26*%
%TO.N,/IO27*%
X188830000Y-73200000D03*
%TO.P,J1,27,Pin_27*%
%TO.N,/IO32*%
X188830000Y-75740000D03*
%TO.P,J1,28,Pin_28*%
%TO.N,/IO33*%
X188830000Y-78280000D03*
%TO.P,J1,29,Pin_29*%
%TO.N,/IO34*%
X188830000Y-80820000D03*
%TO.P,J1,30,Pin_30*%
%TO.N,/IO35*%
X188830000Y-83360000D03*
%TO.P,J1,31,Pin_31*%
%TO.N,/IO36*%
X188830000Y-85900000D03*
%TO.P,J1,32,Pin_32*%
%TO.N,/IO39*%
X188830000Y-88440000D03*
%TD*%
D10*
%TO.P,J2,1,Pin_1*%
%TO.N,/IO5*%
X130210001Y-112740000D03*
D11*
%TO.P,J2,2,Pin_2*%
%TO.N,/IO18*%
X132750001Y-112740000D03*
%TO.P,J2,3,Pin_3*%
%TO.N,/IO23*%
X135290001Y-112740000D03*
%TO.P,J2,4,Pin_4*%
%TO.N,/IO19*%
X137830000Y-112740000D03*
%TO.P,J2,5,Pin_5*%
%TO.N,unconnected-(J2-Pin_5-Pad5)*%
X140370001Y-112740000D03*
%TO.P,J2,6,Pin_6*%
%TO.N,/GND2*%
X142910001Y-112740000D03*
%TO.P,J2,7,Pin_7*%
%TO.N,/RST*%
X145450001Y-112740000D03*
%TO.P,J2,8,Pin_8*%
%TO.N,/3.3V*%
X147990001Y-112740000D03*
%TD*%
D12*
%TO.P,J3,1,Pin_1*%
%TO.N,/GND1*%
X140560000Y-120434000D03*
%TO.P,J3,2,Pin_2*%
%TO.N,/5V*%
X143100000Y-120434000D03*
%TD*%
D13*
%TO.N,/3.3V*%
X148650000Y-109850000D03*
%TO.N,/RST*%
X166500000Y-93950000D03*
%TO.N,/IO19*%
X154650000Y-106400000D03*
X170000000Y-108450000D03*
%TO.N,/IO18*%
X155050000Y-103800000D03*
X167750000Y-106650000D03*
%TO.N,/RST*%
X144900000Y-110100000D03*
%TO.N,/GND2*%
X142450000Y-110150000D03*
%TO.N,/IO23*%
X135750000Y-109900000D03*
%TO.N,/IO5*%
X130850000Y-109700000D03*
X164550000Y-75000000D03*
%TO.N,/GND2*%
X166000000Y-91150000D03*
%TO.N,/3.3V*%
X164750000Y-90100000D03*
%TO.N,/IO23*%
X164500000Y-87550000D03*
%TD*%
D14*
%TO.N,/IO19*%
X187330000Y-65580000D02*
X173750000Y-79160000D01*
X188830000Y-65580000D02*
X187330000Y-65580000D01*
%TO.N,/IO18*%
X187330000Y-63040000D02*
X169150000Y-81220000D01*
X188830000Y-63040000D02*
X187330000Y-63040000D01*
%TO.N,/5V*%
X147016000Y-120184000D02*
X143350000Y-120184000D01*
X160425000Y-106775000D02*
X147016000Y-120184000D01*
X143350000Y-120184000D02*
X143100000Y-120434000D01*
X160425000Y-61675000D02*
X160425000Y-106775000D01*
X161600000Y-60500000D02*
X160425000Y-61675000D01*
%TO.N,/GND1*%
X142028000Y-121902000D02*
X140560000Y-120434000D01*
X151798000Y-121902000D02*
X142028000Y-121902000D01*
X167025000Y-106349695D02*
X167025000Y-106675000D01*
X167025000Y-106675000D02*
X151798000Y-121902000D01*
X167449695Y-105925000D02*
X167025000Y-106349695D01*
X168150000Y-69590000D02*
X168150000Y-105550000D01*
X161600000Y-63040000D02*
X168150000Y-69590000D01*
X168150000Y-105550000D02*
X167775000Y-105925000D01*
X167775000Y-105925000D02*
X167449695Y-105925000D01*
%TO.N,/RST*%
X166100000Y-93550000D02*
X166500000Y-93950000D01*
X164110000Y-93550000D02*
X166100000Y-93550000D01*
X161600000Y-96060000D02*
X164110000Y-93550000D01*
%TO.N,/GND2*%
X163970000Y-91150000D02*
X166000000Y-91150000D01*
X161600000Y-93520000D02*
X163970000Y-91150000D01*
%TO.N,/3.3V*%
X161600000Y-90980000D02*
X162480000Y-90100000D01*
X162480000Y-90100000D02*
X164750000Y-90100000D01*
%TO.N,/IO23*%
X163560000Y-88440000D02*
X164500000Y-87500000D01*
X161600000Y-88440000D02*
X163560000Y-88440000D01*
%TO.N,/IO5*%
X162340000Y-75000000D02*
X164550000Y-75000000D01*
X161600000Y-75740000D02*
X162340000Y-75000000D01*
%TO.N,/3.3V*%
X147990001Y-110509999D02*
X148650000Y-109850000D01*
X147990001Y-112740000D02*
X147990001Y-110509999D01*
%TO.N,/IO19*%
X154650000Y-106450000D02*
X154600000Y-106400000D01*
X154650000Y-106400000D02*
X154650000Y-106450000D01*
X154600000Y-106400000D02*
X154650000Y-106400000D01*
X152300000Y-104100000D02*
X154600000Y-106400000D01*
X143450000Y-104100000D02*
X152300000Y-104100000D01*
X137830000Y-109720000D02*
X143450000Y-104100000D01*
X137830000Y-112740000D02*
X137830000Y-109720000D01*
X169950000Y-108450000D02*
X170000000Y-108400000D01*
X170000000Y-108450000D02*
X169950000Y-108450000D01*
X170000000Y-108400000D02*
X170000000Y-108450000D01*
X173750000Y-104650000D02*
X170000000Y-108400000D01*
X173750000Y-79160000D02*
X173750000Y-104650000D01*
%TO.N,/IO18*%
X154250000Y-103000000D02*
X155050000Y-103800000D01*
X139400000Y-103000000D02*
X154250000Y-103000000D01*
X132750001Y-109649999D02*
X139400000Y-103000000D01*
X132750001Y-112740000D02*
X132750001Y-109649999D01*
X169150000Y-81220000D02*
X169150000Y-105300000D01*
X169150000Y-105300000D02*
X167800000Y-106650000D01*
%TO.N,/GND2*%
X142400000Y-110150000D02*
X142450000Y-110200000D01*
X142450000Y-110150000D02*
X142400000Y-110150000D01*
X142450000Y-110200000D02*
X142450000Y-110150000D01*
%TO.N,/RST*%
X145450001Y-110650001D02*
X144900000Y-110100000D01*
X145450001Y-112740000D02*
X145450001Y-110650001D01*
%TO.N,/GND2*%
X142910001Y-110660001D02*
X142450000Y-110200000D01*
X142910001Y-112740000D02*
X142910001Y-110660001D01*
%TO.N,/IO23*%
X135290001Y-110359999D02*
X135750000Y-109900000D01*
X135290001Y-112740000D02*
X135290001Y-110359999D01*
%TO.N,/IO5*%
X130210001Y-110339999D02*
X130850000Y-109700000D01*
X130210001Y-112740000D02*
X130210001Y-110339999D01*
%TO.N,/IO23*%
X164550000Y-87550000D02*
X164500000Y-87500000D01*
X164500000Y-87550000D02*
X164550000Y-87550000D01*
X164500000Y-87500000D02*
X164500000Y-87550000D01*
%TD*%
M02*
